<svg xmlns="http://www.w3.org/2000/svg" width="1000" height="500">
  <g fill="none" stroke="#6095bf" clip-path="url(#a)">
    <circle cx="1000.04" cy="499.42" r="10.05" stroke-width=".52"/>
    <circle cx="999.94" cy="499.46" r="20.1" stroke-width=".45"/>
    <circle cx="1000.21" cy="499.07" r="30.29" stroke-width=".54"/>
    <circle cx="999.47" cy="498.91" r="39.74" stroke-width=".49"/>
    <circle cx="999.1" cy="498.98" r="49.97" stroke-width=".49"/>
    <circle cx="999.42" cy="499.41" r="60.35" stroke-width=".46"/>
    <circle cx="999.75" cy="499.17" r="69.93" stroke-width=".46"/>
    <circle cx="1000.11" cy="499.27" r="79.87" stroke-width=".51"/>
    <circle cx="999.57" cy="500" r="90" stroke-width=".48"/>
    <circle cx="1000.2" cy="500" r="100.2" stroke-width=".54"/>
    <circle cx="999.57" cy="499.95" r="110.23" stroke-width=".52"/>
    <circle cx="1000.3" cy="500.2" r="120.2" stroke-width=".48"/>
    <circle cx="1000.68" cy="499.83" r="130.25" stroke-width=".49"/>
    <circle cx="1001.09" cy="500.3" r="139.65" stroke-width=".47"/>
    <circle cx="1001.45" cy="500.5" r="149.8" stroke-width=".48"/>
    <circle cx="1001.82" cy="500.79" r="159.95" stroke-width=".53"/>
    <circle cx="1002.57" cy="500.71" r="169.75" stroke-width=".5"/>
    <circle cx="1002.88" cy="500.46" r="179.89" stroke-width=".52"/>
    <circle cx="1003.02" cy="500.91" r="189.81" stroke-width=".55"/>
    <circle cx="1003.17" cy="500.99" r="200.2" stroke-width=".53"/>
    <circle cx="1003.88" cy="501.55" r="210.28" stroke-width=".45"/>
    <circle cx="1003.24" cy="500.86" r="220.11" stroke-width=".5"/>
    <circle cx="1003.11" cy="500.88" r="230.32" stroke-width=".45"/>
    <circle cx="1002.38" cy="501.59" r="240.03" stroke-width=".46"/>
    <circle cx="1002.17" cy="500.93" r="250.23" stroke-width=".52"/>
    <circle cx="1002.65" cy="501.27" r="260.36" stroke-width=".48"/>
    <circle cx="1003.27" cy="500.67" r="270.04" stroke-width=".51"/>
    <circle cx="1003.4" cy="500.27" r="279.82" stroke-width=".52"/>
    <circle cx="1002.69" cy="501.01" r="289.94" stroke-width=".46"/>
    <circle cx="1002.94" cy="501.17" r="300.16" stroke-width=".52"/>
    <circle cx="1002.71" cy="501.13" r="310.02" stroke-width=".47"/>
    <circle cx="1002.76" cy="500.48" r="319.82" stroke-width=".49"/>
    <circle cx="1002.79" cy="500.99" r="329.82" stroke-width=".53"/>
    <circle cx="1003.07" cy="501.32" r="339.67" stroke-width=".53"/>
    <circle cx="1003.64" cy="501.71" r="349.82" stroke-width=".49"/>
    <circle cx="1003.63" cy="501.7" r="360.04" stroke-width=".52"/>
    <circle cx="1004.27" cy="501.23" r="370.35" stroke-width=".45"/>
    <circle cx="1004.6" cy="501.83" r="379.98" stroke-width=".51"/>
    <circle cx="1004.42" cy="501.34" r="389.79" stroke-width=".55"/>
    <circle cx="1004.05" cy="500.89" r="400.11" stroke-width=".48"/>
    <circle cx="1004.27" cy="500.97" r="410.01" stroke-width=".48"/>
    <circle cx="1004.46" cy="500.78" r="419.64" stroke-width=".48"/>
    <circle cx="1003.82" cy="500.29" r="430.16" stroke-width=".5"/>
    <circle cx="1003.96" cy="501" r="439.8" stroke-width=".45"/>
    <circle cx="1004.22" cy="501.12" r="449.97" stroke-width=".47"/>
    <circle cx="1004.03" cy="501.09" r="459.65" stroke-width=".5"/>
    <circle cx="1003.91" cy="500.91" r="470.14" stroke-width=".48"/>
    <circle cx="1004.4" cy="501.05" r="480.08" stroke-width=".47"/>
    <circle cx="1003.67" cy="501.61" r="489.95" stroke-width=".47"/>
    <circle cx="1003.31" cy="501.28" r="500" stroke-width=".48"/>
    <circle cx="1003.68" cy="501.86" r="509.91" stroke-width=".5"/>
    <circle cx="1003.85" cy="501.69" r="519.83" stroke-width=".53"/>
    <circle cx="1004.5" cy="502.17" r="530.35" stroke-width=".54"/>
    <circle cx="1005.14" cy="501.53" r="539.81" stroke-width=".48"/>
    <circle cx="1004.53" cy="502.01" r="549.76" stroke-width=".55"/>
    <circle cx="1004.21" cy="501.45" r="559.81" stroke-width=".52"/>
    <circle cx="1004.03" cy="501.85" r="569.63" stroke-width=".54"/>
    <circle cx="1003.41" cy="502.18" r="579.85" stroke-width=".54"/>
    <circle cx="1003.77" cy="501.57" r="590.03" stroke-width=".49"/>
    <circle cx="1004.27" cy="502.11" r="599.7" stroke-width=".52"/>
    <circle cx="1004.22" cy="501.86" r="609.66" stroke-width=".45"/>
    <circle cx="1004.42" cy="501.99" r="619.7" stroke-width=".53"/>
    <circle cx="1003.94" cy="502.46" r="629.91" stroke-width=".47"/>
    <circle cx="1004.18" cy="502.89" r="640.02" stroke-width=".48"/>
    <circle cx="1004.71" cy="502.64" r="649.81" stroke-width=".47"/>
    <circle cx="1004.36" cy="503.38" r="660.08" stroke-width=".53"/>
    <circle cx="1004.7" cy="503.65" r="669.75" stroke-width=".48"/>
    <circle cx="1004.78" cy="504.03" r="679.8" stroke-width=".5"/>
    <circle cx="1004.76" cy="504.43" r="689.65" stroke-width=".49"/>
    <circle cx="1004.76" cy="503.82" r="700.14" stroke-width=".48"/>
    <circle cx="1004.15" cy="503.78" r="709.94" stroke-width=".5"/>
    <circle cx="1004.59" cy="503.53" r="719.94" stroke-width=".54"/>
    <circle cx="1004.89" cy="504.1" r="730.24" stroke-width=".55"/>
    <circle cx="1004.4" cy="504.33" r="739.86" stroke-width=".46"/>
    <circle cx="1004.35" cy="503.68" r="749.79" stroke-width=".46"/>
    <circle cx="1003.79" cy="502.95" r="759.94" stroke-width=".5"/>
    <circle cx="1003.27" cy="502.54" r="770.31" stroke-width=".54"/>
    <circle cx="1003.87" cy="501.83" r="780.33" stroke-width=".47"/>
    <circle cx="1004.6" cy="502.5" r="789.81" stroke-width=".46"/>
    <circle cx="1004.7" cy="501.85" r="799.99" stroke-width=".47"/>
    <circle cx="1004.62" cy="502.16" r="810.34" stroke-width=".53"/>
    <circle cx="1004.99" cy="502.41" r="820.18" stroke-width=".49"/>
    <circle cx="1005.64" cy="502.56" r="829.77" stroke-width=".48"/>
    <circle cx="1005.06" cy="503.19" r="839.99" stroke-width=".55"/>
    <circle cx="1005.52" cy="503.07" r="849.7" stroke-width=".48"/>
    <circle cx="1005.82" cy="502.87" r="859.95" stroke-width=".52"/>
    <circle cx="1006.47" cy="503.11" r="869.87" stroke-width=".51"/>
    <circle cx="1006.64" cy="503.7" r="879.75" stroke-width=".53"/>
    <circle cx="1007.36" cy="503.44" r="890.1" stroke-width=".47"/>
    <circle cx="1007.34" cy="503.61" r="899.8" stroke-width=".5"/>
    <circle cx="1007.84" cy="503.09" r="909.64" stroke-width=".49"/>
    <circle cx="1007.19" cy="502.74" r="919.69" stroke-width=".5"/>
    <circle cx="1006.54" cy="502.04" r="929.77" stroke-width=".55"/>
    <circle cx="1006.34" cy="501.32" r="939.69" stroke-width=".51"/>
    <circle cx="1006.85" cy="501.56" r="950.32" stroke-width=".52"/>
    <circle cx="1006.89" cy="501.83" r="959.95" stroke-width=".51"/>
    <circle cx="1006.17" cy="502.2" r="970.31" stroke-width=".45"/>
    <circle cx="1006.56" cy="502.82" r="980.02" stroke-width=".48"/>
    <circle cx="1006" cy="502.36" r="990.23" stroke-width=".53"/>
    <circle cx="1006.69" cy="502.05" r="999.82" stroke-width=".46"/>
    <circle cx="1006.81" cy="502.64" r="1009.9" stroke-width=".51"/>
    <circle cx="1006.66" cy="503.25" r="1020.04" stroke-width=".52"/>
    <circle cx="1006.09" cy="502.78" r="1029.85" stroke-width=".53"/>
    <circle cx="1005.47" cy="502.52" r="1039.65" stroke-width=".54"/>
    <circle cx="1005.47" cy="502.66" r="1049.74" stroke-width=".53"/>
    <circle cx="1005.74" cy="502.65" r="1059.89" stroke-width=".5"/>
    <circle cx="1005.57" cy="501.95" r="1069.81" stroke-width=".51"/>
    <circle cx="1005.12" cy="501.33" r="1080.05" stroke-width=".46"/>
    <circle cx="1004.56" cy="500.93" r="1090.34" stroke-width=".46"/>
    <circle cx="1004.31" cy="501.29" r="1099.69" stroke-width=".48"/>
    <circle cx="1005.02" cy="501.11" r="1110.34" stroke-width=".47"/>
  </g>
  <defs>
    <clipPath id="a">
      <path d="M10.32 9.82h1000v500h-1000z"/>
    </clipPath>
    <clipPath id="b">
      <path d="M10.75 9.91h1000v500h-1000z"/>
    </clipPath>
    <clipPath id="c">
      <path d="M10.56 10.4h1000v500h-1000z"/>
    </clipPath>
  </defs>
  <g fill="none" stroke="#fff472" clip-path="url(#b)">
    <circle cx="500.57" cy="-.52" r="9.83" stroke-width=".46"/>
    <circle cx="500.29" cy="-.76" r="19.69" stroke-width=".51"/>
    <circle cx="500.49" cy="-1.21" r="30.26" stroke-width=".47"/>
    <circle cx="501.13" cy="-1.23" r="39.98" stroke-width=".52"/>
    <circle cx="501.67" cy="-1.06" r="49.81" stroke-width=".5"/>
    <circle cx="501.86" cy="-1.12" r="60.06" stroke-width=".54"/>
    <circle cx="501.25" cy="-.68" r="70.07" stroke-width=".52"/>
    <circle cx="501.09" cy="-.45" r="79.95" stroke-width=".54"/>
    <circle cx="500.86" cy=".13" r="89.78" stroke-width=".51"/>
    <circle cx="500.82" cy=".67" r="99.79" stroke-width=".51"/>
    <circle cx="501.49" cy=".29" r="110.34" stroke-width=".52"/>
    <circle cx="501.04" cy=".44" r="120.19" stroke-width=".54"/>
    <circle cx="501.66" cy="1.03" r="129.83" stroke-width=".52"/>
    <circle cx="502.25" cy="1.61" r="140.06" stroke-width=".47"/>
    <circle cx="502.35" cy="1.07" r="150.36" stroke-width=".52"/>
    <circle cx="503.02" cy=".54" r="160.32" stroke-width=".51"/>
    <circle cx="502.73" cy="1.24" r="169.98" stroke-width=".54"/>
    <circle cx="502.88" cy=".71" r="180.3" stroke-width=".54"/>
    <circle cx="502.17" cy="1.27" r="190.01" stroke-width=".49"/>
    <circle cx="502.29" cy="1.04" r="200.06" stroke-width=".52"/>
    <circle cx="501.6" cy="1.27" r="210.37" stroke-width=".48"/>
    <circle cx="501.31" cy="1.14" r="220.37" stroke-width=".53"/>
    <circle cx="501.98" cy=".83" r="229.68" stroke-width=".49"/>
    <circle cx="502.02" cy=".98" r="239.95" stroke-width=".52"/>
    <circle cx="501.88" cy="1.58" r="249.96" stroke-width=".49"/>
    <circle cx="502.52" cy="1.07" r="260.1" stroke-width=".49"/>
    <circle cx="502.47" cy="1.77" r="269.86" stroke-width=".52"/>
    <circle cx="501.95" cy="2.22" r="280.34" stroke-width=".53"/>
    <circle cx="501.69" cy="2.96" r="289.83" stroke-width=".55"/>
    <circle cx="502.24" cy="3.54" r="300.26" stroke-width=".54"/>
    <circle cx="502.64" cy="3.22" r="309.66" stroke-width=".52"/>
    <circle cx="501.97" cy="2.86" r="319.88" stroke-width=".52"/>
    <circle cx="501.81" cy="2.16" r="330.36" stroke-width=".51"/>
    <circle cx="501.64" cy="2.21" r="340.3" stroke-width=".46"/>
    <circle cx="501.52" cy="1.8" r="349.78" stroke-width=".46"/>
    <circle cx="501.18" cy="1.31" r="360.31" stroke-width=".54"/>
    <circle cx="501.42" cy="1.17" r="370.06" stroke-width=".54"/>
    <circle cx="502.11" cy="1.44" r="379.79" stroke-width=".45"/>
    <circle cx="502.23" cy="1.39" r="390.23" stroke-width=".48"/>
    <circle cx="502.96" cy="1.58" r="399.66" stroke-width=".54"/>
    <circle cx="502.82" cy="1.75" r="410.34" stroke-width=".52"/>
    <circle cx="502.54" cy="1.2" r="420.24" stroke-width=".48"/>
    <circle cx="502.99" cy="1.44" r="430.11" stroke-width=".49"/>
    <circle cx="502.46" cy="2.04" r="440.07" stroke-width=".55"/>
    <circle cx="502.04" cy="2.04" r="449.65" stroke-width=".54"/>
    <circle cx="501.85" cy="1.34" r="460.13" stroke-width=".53"/>
    <circle cx="502.27" cy="1.56" r="469.76" stroke-width=".46"/>
    <circle cx="501.88" cy="2.17" r="479.83" stroke-width=".52"/>
    <circle cx="502.36" cy="2.11" r="489.64" stroke-width=".46"/>
    <circle cx="502.26" cy="2.67" r="500.12" stroke-width=".53"/>
    <circle cx="501.6" cy="3.19" r="510.16" stroke-width=".5"/>
    <circle cx="501.99" cy="3.37" r="520.04" stroke-width=".49"/>
    <circle cx="502.64" cy="4.07" r="529.82" stroke-width=".54"/>
    <circle cx="502.9" cy="4.56" r="539.76" stroke-width=".51"/>
    <circle cx="502.72" cy="4.07" r="550.09" stroke-width=".47"/>
    <circle cx="502.39" cy="3.33" r="559.91" stroke-width=".51"/>
    <circle cx="502.91" cy="3.65" r="570.36" stroke-width=".47"/>
    <circle cx="502.88" cy="3.69" r="579.66" stroke-width=".54"/>
    <circle cx="503.46" cy="3.44" r="589.9" stroke-width=".51"/>
    <circle cx="504.01" cy="3.54" r="599.74" stroke-width=".51"/>
    <circle cx="504.55" cy="4.2" r="610.21" stroke-width=".53"/>
    <circle cx="504.06" cy="3.5" r="619.7" stroke-width=".46"/>
    <circle cx="503.61" cy="3.67" r="629.93" stroke-width=".46"/>
    <circle cx="503.05" cy="4.4" r="639.83" stroke-width=".5"/>
    <circle cx="503.31" cy="4.82" r="649.9" stroke-width=".5"/>
    <circle cx="503.49" cy="5.12" r="659.81" stroke-width=".54"/>
    <circle cx="503.38" cy="5.05" r="670.29" stroke-width=".53"/>
    <circle cx="503.35" cy="5.72" r="679.66" stroke-width=".48"/>
    <circle cx="503.82" cy="5.3" r="689.9" stroke-width=".51"/>
    <circle cx="503.99" cy="5.73" r="699.68" stroke-width=".53"/>
    <circle cx="504.2" cy="5.61" r="709.7" stroke-width=".54"/>
    <circle cx="504.95" cy="5.42" r="719.88" stroke-width=".51"/>
    <circle cx="505.62" cy="4.68" r="730.08" stroke-width=".46"/>
    <circle cx="505.05" cy="4.71" r="739.71" stroke-width=".47"/>
    <circle cx="505.24" cy="4.22" r="749.94" stroke-width=".49"/>
    <circle cx="504.89" cy="4.49" r="759.92" stroke-width=".54"/>
    <circle cx="504.86" cy="4.1" r="770.36" stroke-width=".5"/>
    <circle cx="505.34" cy="3.63" r="780.04" stroke-width=".48"/>
    <circle cx="504.89" cy="3.85" r="789.75" stroke-width=".5"/>
    <circle cx="505.32" cy="4.4" r="799.79" stroke-width=".54"/>
    <circle cx="505.66" cy="4.06" r="810.22" stroke-width=".53"/>
    <circle cx="505.15" cy="4.75" r="819.84" stroke-width=".5"/>
    <circle cx="505.18" cy="4.09" r="830.16" stroke-width=".54"/>
    <circle cx="505.92" cy="3.88" r="840.16" stroke-width=".51"/>
    <circle cx="505.44" cy="3.27" r="849.92" stroke-width=".46"/>
    <circle cx="505.51" cy="3.99" r="860.2" stroke-width=".5"/>
    <circle cx="506.01" cy="3.92" r="870.32" stroke-width=".53"/>
    <circle cx="505.55" cy="3.51" r="880" stroke-width=".5"/>
    <circle cx="505.08" cy="3.54" r="890.11" stroke-width=".51"/>
    <circle cx="505.8" cy="3.45" r="900.32" stroke-width=".47"/>
    <circle cx="505.57" cy="3.56" r="909.67" stroke-width=".48"/>
    <circle cx="505.07" cy="3.06" r="919.84" stroke-width=".54"/>
    <circle cx="505.26" cy="2.89" r="929.93" stroke-width=".5"/>
    <circle cx="504.66" cy="2.34" r="939.78" stroke-width=".45"/>
    <circle cx="504.95" cy="2.37" r="950.16" stroke-width=".51"/>
    <circle cx="505.06" cy="2.98" r="959.76" stroke-width=".48"/>
    <circle cx="505.52" cy="3.6" r="969.66" stroke-width=".54"/>
    <circle cx="505.51" cy="3.07" r="979.95" stroke-width=".54"/>
    <circle cx="505.61" cy="2.6" r="990.21" stroke-width=".49"/>
    <circle cx="505.83" cy="2.08" r="999.88" stroke-width=".53"/>
    <circle cx="505.65" cy="2.51" r="1009.96" stroke-width=".55"/>
    <circle cx="505.51" cy="2.4" r="1019.74" stroke-width=".51"/>
    <circle cx="505.14" cy="2.97" r="1029.98" stroke-width=".55"/>
    <circle cx="505.1" cy="3.51" r="1039.64" stroke-width=".53"/>
    <circle cx="504.81" cy="4.07" r="1050" stroke-width=".54"/>
    <circle cx="504.44" cy="3.88" r="1059.93" stroke-width=".45"/>
    <circle cx="504.07" cy="4.53" r="1070.34" stroke-width=".46"/>
    <circle cx="503.64" cy="4.33" r="1080.31" stroke-width=".52"/>
    <circle cx="503.93" cy="4.36" r="1090.05" stroke-width=".48"/>
    <circle cx="503.26" cy="4.24" r="1100.09" stroke-width=".52"/>
    <circle cx="503.97" cy="4.56" r="1110.26" stroke-width=".5"/>
    <circle cx="504.38" cy="3.99" r="1120.24" stroke-width=".53"/>
    <circle cx="504.51" cy="4.17" r="1129.79" stroke-width=".54"/>
    <circle cx="504.4" cy="3.67" r="1140.15" stroke-width=".52"/>
    <circle cx="503.84" cy="3.86" r="1150.15" stroke-width=".54"/>
    <circle cx="503.55" cy="3.3" r="1160.25" stroke-width=".54"/>
    <circle cx="503.22" cy="3.61" r="1170.33" stroke-width=".5"/>
    <circle cx="503.86" cy="3.65" r="1180.14" stroke-width=".5"/>
    <circle cx="504.03" cy="3.62" r="1190.09" stroke-width=".55"/>
    <circle cx="503.93" cy="3.87" r="1199.9" stroke-width=".54"/>
    <circle cx="503.92" cy="3.95" r="1209.94" stroke-width=".54"/>
    <circle cx="503.25" cy="4.55" r="1220.21" stroke-width=".54"/>
    <circle cx="503.5" cy="5.04" r="1229.94" stroke-width=".52"/>
    <circle cx="504.03" cy="5.75" r="1240.05" stroke-width=".51"/>
    <circle cx="503.93" cy="5.84" r="1249.83" stroke-width=".5"/>
    <circle cx="504.39" cy="5.86" r="1260.16" stroke-width=".49"/>
    <circle cx="504.98" cy="6.32" r="1269.96" stroke-width=".49"/>
    <circle cx="504.27" cy="6.95" r="1280.37" stroke-width=".51"/>
    <circle cx="503.56" cy="7.66" r="1290.04" stroke-width=".5"/>
    <circle cx="503.67" cy="7.38" r="1299.8" stroke-width=".52"/>
    <circle cx="504.38" cy="7.49" r="1309.9" stroke-width=".54"/>
    <circle cx="504.97" cy="6.85" r="1319.92" stroke-width=".49"/>
    <circle cx="505.52" cy="7.46" r="1329.64" stroke-width=".48"/>
    <circle cx="504.77" cy="7.18" r="1339.79" stroke-width=".45"/>
    <circle cx="504.4" cy="7.19" r="1350.12" stroke-width=".48"/>
    <circle cx="504.12" cy="6.67" r="1359.81" stroke-width=".48"/>
    <circle cx="504.76" cy="6.36" r="1370.13" stroke-width=".51"/>
    <circle cx="505.12" cy="6.61" r="1379.75" stroke-width=".55"/>
    <circle cx="505.41" cy="6.4" r="1389.79" stroke-width=".45"/>
    <circle cx="505.95" cy="6.6" r="1399.98" stroke-width=".54"/>
    <circle cx="506.42" cy="7.32" r="1409.99" stroke-width=".47"/>
  </g>
  <g fill="none" stroke="#ff8756" clip-path="url(#c)">
    <circle cx="-.1" cy="250.31" r="10.15" stroke-width=".49"/>
    <circle cx="-.7" cy="250.42" r="19.85" stroke-width=".5"/>
    <circle cx="-.37" cy="250.76" r="30.17" stroke-width=".5"/>
    <circle cx="-.62" cy="250.58" r="40.29" stroke-width=".46"/>
    <circle cx="-.11" cy="251.09" r="49.71" stroke-width=".54"/>
    <circle cx="-.01" cy="250.67" r="59.97" stroke-width=".48"/>
    <circle cx=".01" cy="250.13" r="70.37" stroke-width=".55"/>
    <circle cx="-.42" cy="249.71" r="80.18" stroke-width=".46"/>
    <circle cx="-.99" cy="250.15" r="89.99" stroke-width=".51"/>
    <circle cx="-.75" cy="249.95" r="99.66" stroke-width=".51"/>
    <circle cx="-1.49" cy="249.73" r="109.79" stroke-width=".48"/>
    <circle cx="-.92" cy="249.6" r="119.73" stroke-width=".49"/>
    <circle cx="-.36" cy="249.9" r="130.23" stroke-width=".46"/>
    <circle cx="-.22" cy="250.13" r="140.18" stroke-width=".5"/>
    <circle cx=".12" cy="249.67" r="149.97" stroke-width=".45"/>
    <circle cx=".17" cy="249.31" r="159.87" stroke-width=".49"/>
    <circle cx="-.2" cy="249.43" r="169.9" stroke-width=".45"/>
    <circle cx="-.68" cy="249.2" r="179.93" stroke-width=".47"/>
    <circle cx="-1.35" cy="249.21" r="190.27" stroke-width=".48"/>
    <circle cx="-.62" cy="248.85" r="199.64" stroke-width=".46"/>
    <circle cx="-1.01" cy="248.36" r="210.03" stroke-width=".46"/>
    <circle cx="-.28" cy="248.5" r="219.92" stroke-width=".49"/>
    <circle cx="-.62" cy="248" r="229.95" stroke-width=".49"/>
    <circle cx="-.58" cy="247.6" r="239.72" stroke-width=".47"/>
    <circle cx="-.6" cy="247.62" r="250.25" stroke-width=".5"/>
    <circle cx="-1.33" cy="247.76" r="260.26" stroke-width=".48"/>
    <circle cx="-.7" cy="247.11" r="269.68" stroke-width=".55"/>
    <circle cx="-.89" cy="247.33" r="280.19" stroke-width=".47"/>
    <circle cx="-1.61" cy="246.89" r="290.2" stroke-width=".49"/>
    <circle cx="-1.14" cy="246.25" r="299.69" stroke-width=".45"/>
    <circle cx="-1.55" cy="246.48" r="309.94" stroke-width=".53"/>
    <circle cx="-1.13" cy="245.82" r="319.7" stroke-width=".53"/>
    <circle cx="-.51" cy="246.14" r="329.95" stroke-width=".46"/>
    <circle cx="-.51" cy="246.8" r="340.16" stroke-width=".54"/>
    <circle cx="-.65" cy="246.2" r="349.63" stroke-width=".5"/>
    <circle cx="-1.22" cy="246.37" r="359.68" stroke-width=".53"/>
    <circle cx="-1.18" cy="246.46" r="370.07" stroke-width=".54"/>
    <circle cx="-.86" cy="246.71" r="380.02" stroke-width=".47"/>
    <circle cx="-.33" cy="247.09" r="390.13" stroke-width=".48"/>
    <circle cx="-.71" cy="246.76" r="399.74" stroke-width=".51"/>
    <circle cx="-.02" cy="247.29" r="409.7" stroke-width=".49"/>
    <circle cx="-.65" cy="247.47" r="420.04" stroke-width=".47"/>
    <circle cx="-1.32" cy="247.49" r="430.28" stroke-width=".55"/>
    <circle cx="-.9" cy="247.18" r="439.82" stroke-width=".53"/>
    <circle cx="-.47" cy="246.58" r="449.81" stroke-width=".47"/>
    <circle cx="-.09" cy="246.5" r="459.94" stroke-width=".5"/>
    <circle cx="-.6" cy="247.02" r="469.65" stroke-width=".47"/>
    <circle cx="-.2" cy="247.01" r="480.04" stroke-width=".54"/>
    <circle cx=".52" cy="246.38" r="490.18" stroke-width=".47"/>
    <circle cx=".56" cy="246.06" r="499.94" stroke-width=".55"/>
    <circle cx=".16" cy="246.23" r="510" stroke-width=".45"/>
    <circle cx=".69" cy="246.42" r="519.73" stroke-width=".47"/>
    <circle cx="1.15" cy="246.73" r="530.18" stroke-width=".54"/>
    <circle cx="1.88" cy="246.76" r="539.78" stroke-width=".52"/>
    <circle cx="1.95" cy="246.72" r="550.22" stroke-width=".46"/>
    <circle cx="2.57" cy="246.56" r="559.98" stroke-width=".51"/>
    <circle cx="2.04" cy="246.32" r="569.94" stroke-width=".47"/>
    <circle cx="1.81" cy="245.89" r="579.79" stroke-width=".51"/>
    <circle cx="1.64" cy="245.21" r="589.75" stroke-width=".47"/>
    <circle cx="1.87" cy="245.72" r="600.03" stroke-width=".49"/>
    <circle cx="1.8" cy="245.59" r="609.7" stroke-width=".52"/>
    <circle cx="1.34" cy="245.31" r="620.04" stroke-width=".46"/>
    <circle cx=".59" cy="245.42" r="630.19" stroke-width=".54"/>
    <circle cx=".15" cy="246.1" r="640.29" stroke-width=".47"/>
    <circle cx="-.23" cy="246.45" r="649.67" stroke-width=".53"/>
    <circle cx=".38" cy="246.77" r="660.36" stroke-width=".53"/>
    <circle cx=".19" cy="246.04" r="670.23" stroke-width=".46"/>
    <circle cx=".6" cy="246.65" r="680.07" stroke-width=".46"/>
    <circle cx="1.07" cy="246.58" r="689.65" stroke-width=".47"/>
    <circle cx="1.31" cy="247.07" r="699.85" stroke-width=".49"/>
    <circle cx=".72" cy="247.31" r="710.01" stroke-width=".48"/>
    <circle cx="1.19" cy="247.2" r="719.78" stroke-width=".5"/>
    <circle cx="1.47" cy="247.57" r="729.79" stroke-width=".49"/>
    <circle cx="1.88" cy="246.94" r="740.16" stroke-width=".53"/>
    <circle cx="1.96" cy="246.65" r="749.93" stroke-width=".51"/>
    <circle cx="2.61" cy="246.5" r="760.05" stroke-width=".51"/>
    <circle cx="2.77" cy="246.94" r="769.98" stroke-width=".54"/>
    <circle cx="2.31" cy="246.58" r="779.67" stroke-width=".5"/>
    <circle cx="1.66" cy="246.67" r="790.07" stroke-width=".5"/>
    <circle cx="1.12" cy="246.91" r="800.28" stroke-width=".5"/>
    <circle cx=".76" cy="247.26" r="810.32" stroke-width=".51"/>
    <circle cx="1" cy="247.88" r="819.94" stroke-width=".52"/>
    <circle cx=".53" cy="247.73" r="830.13" stroke-width=".49"/>
    <circle cx=".31" cy="248.25" r="839.89" stroke-width=".47"/>
    <circle cx=".51" cy="248.8" r="849.89" stroke-width=".5"/>
    <circle cx=".98" cy="248.11" r="860.18" stroke-width=".52"/>
    <circle cx="1.44" cy="248.79" r="870.14" stroke-width=".45"/>
    <circle cx="1.33" cy="248.51" r="880.01" stroke-width=".49"/>
    <circle cx=".81" cy="248.51" r="890.22" stroke-width=".51"/>
    <circle cx="1.45" cy="248.39" r="899.66" stroke-width=".49"/>
    <circle cx=".74" cy="248.49" r="909.76" stroke-width=".47"/>
    <circle cx="1.21" cy="248.4" r="920.32" stroke-width=".5"/>
    <circle cx="1.93" cy="248.5" r="930.04" stroke-width=".47"/>
    <circle cx="2.51" cy="248.53" r="939.94" stroke-width=".47"/>
    <circle cx="2.82" cy="248.16" r="950.21" stroke-width=".51"/>
    <circle cx="2.22" cy="247.72" r="960.29" stroke-width=".54"/>
    <circle cx="1.8" cy="247.79" r="969.65" stroke-width=".47"/>
    <circle cx="2.54" cy="247.91" r="980" stroke-width=".53"/>
    <circle cx="2.14" cy="247.32" r="990.26" stroke-width=".52"/>
    <circle cx="1.44" cy="248" r="999.78" stroke-width=".53"/>
    <circle cx="2.16" cy="247.43" r="1010.32" stroke-width=".47"/>
    <circle cx="2.11" cy="247.39" r="1020.06" stroke-width=".52"/>
    <circle cx="1.82" cy="247.86" r="1029.74" stroke-width=".49"/>
    <circle cx="1.76" cy="248.36" r="1040.31" stroke-width=".54"/>
    <circle cx="1.57" cy="248.87" r="1050.35" stroke-width=".51"/>
    <circle cx="1.16" cy="249.07" r="1059.76" stroke-width=".5"/>
    <circle cx="1.7" cy="248.36" r="1070.06" stroke-width=".52"/>
    <circle cx="1.9" cy="247.85" r="1080.07" stroke-width=".46"/>
    <circle cx="1.73" cy="248.52" r="1090.13" stroke-width=".52"/>
    <circle cx="2.01" cy="248.79" r="1100.03" stroke-width=".5"/>
    <circle cx="1.95" cy="249.07" r="1109.92" stroke-width=".52"/>
    <circle cx="2.39" cy="248.86" r="1120.3" stroke-width=".46"/>
    <circle cx="2.45" cy="248.59" r="1130.2" stroke-width=".54"/>
    <circle cx="2.26" cy="248.35" r="1140.2" stroke-width=".46"/>
    <circle cx="2.34" cy="247.8" r="1149.87" stroke-width=".55"/>
    <circle cx="2.11" cy="247.28" r="1159.82" stroke-width=".55"/>
    <circle cx="2.12" cy="246.65" r="1170.09" stroke-width=".53"/>
    <circle cx="2.32" cy="246.7" r="1179.94" stroke-width=".48"/>
    <circle cx="1.95" cy="246.77" r="1190.25" stroke-width=".5"/>
    <circle cx="1.26" cy="246.51" r="1199.69" stroke-width=".46"/>
    <circle cx="1.04" cy="247.1" r="1210.27" stroke-width=".49"/>
    <circle cx=".38" cy="246.86" r="1220.21" stroke-width=".53"/>
    <circle cx=".7" cy="246.57" r="1230.2" stroke-width=".46"/>
    <circle cx=".79" cy="246.16" r="1240.1" stroke-width=".49"/>
    <circle cx="1.06" cy="246.53" r="1250.33" stroke-width=".55"/>
    <circle cx=".43" cy="246.45" r="1260.28" stroke-width=".5"/>
    <circle cx=".66" cy="247.11" r="1269.73" stroke-width=".51"/>
    <circle cx=".61" cy="247.85" r="1279.87" stroke-width=".55"/>
    <circle cx=".19" cy="247.62" r="1289.86" stroke-width=".53"/>
    <circle cx=".17" cy="247.96" r="1299.71" stroke-width=".47"/>
    <circle cx=".04" cy="247.9" r="1309.91" stroke-width=".5"/>
    <circle cx=".67" cy="247.69" r="1319.98" stroke-width=".45"/>
    <circle cx=".73" cy="247.3" r="1330.37" stroke-width=".47"/>
    <circle cx=".78" cy="246.69" r="1339.72" stroke-width=".54"/>
    <circle cx=".83" cy="246.42" r="1350.07" stroke-width=".53"/>
    <circle cx="1.29" cy="246.98" r="1360.09" stroke-width=".46"/>
    <circle cx="1.14" cy="247.49" r="1369.88" stroke-width=".51"/>
    <circle cx="1.59" cy="247.72" r="1380.13" stroke-width=".51"/>
    <circle cx="1.01" cy="247.41" r="1390.22" stroke-width=".5"/>
    <circle cx=".46" cy="246.71" r="1400.12" stroke-width=".48"/>
    <circle cx=".6" cy="247.24" r="1410.02" stroke-width=".45"/>
  </g>
</svg>
