<svg xmlns="http://www.w3.org/2000/svg" width="1000" height="500">
  <g fill="none" stroke="#fff472" clip-path="url(#a)">
    <circle cx="500.62" cy=".72" r="9.94" stroke-width=".54"/>
    <circle cx="500.21" cy=".94" r="19.63" stroke-width=".46"/>
    <circle cx="499.95" cy=".74" r="29.99" stroke-width=".55"/>
    <circle cx="500.39" cy=".95" r="40.33" stroke-width=".51"/>
    <circle cx="500.12" cy="1.7" r="49.65" stroke-width=".51"/>
    <circle cx="500.17" cy="2.24" r="59.77" stroke-width=".55"/>
    <circle cx="499.49" cy="1.81" r="70.08" stroke-width=".5"/>
    <circle cx="499.71" cy="2.38" r="80.23" stroke-width=".5"/>
    <circle cx="499.92" cy="2.19" r="89.82" stroke-width=".51"/>
    <circle cx="499.55" cy="1.89" r="100.36" stroke-width=".46"/>
    <circle cx="500.09" cy="2.35" r="109.93" stroke-width=".46"/>
    <circle cx="499.69" cy="2.86" r="119.98" stroke-width=".5"/>
    <circle cx="499.78" cy="3.61" r="129.83" stroke-width=".49"/>
    <circle cx="500.36" cy="2.98" r="139.75" stroke-width=".47"/>
    <circle cx="500" cy="2.75" r="150.02" stroke-width=".5"/>
    <circle cx="500.61" cy="3.42" r="159.76" stroke-width=".49"/>
    <circle cx="500.35" cy="2.86" r="169.92" stroke-width=".52"/>
    <circle cx="500.74" cy="2.8" r="179.92" stroke-width=".49"/>
    <circle cx="501.46" cy="2.35" r="189.99" stroke-width=".54"/>
    <circle cx="501.57" cy="2.79" r="200.03" stroke-width=".5"/>
    <circle cx="502.22" cy="2.7" r="209.72" stroke-width=".49"/>
    <circle cx="502.53" cy="2.9" r="220.07" stroke-width=".48"/>
    <circle cx="503.21" cy="3.63" r="229.74" stroke-width=".5"/>
    <circle cx="503.01" cy="3.19" r="239.95" stroke-width=".48"/>
    <circle cx="502.75" cy="3.3" r="249.8" stroke-width=".51"/>
    <circle cx="503.43" cy="3.7" r="260.11" stroke-width=".5"/>
    <circle cx="503.08" cy="3.57" r="270.15" stroke-width=".47"/>
    <circle cx="503.64" cy="3.49" r="280.19" stroke-width=".52"/>
    <circle cx="504.17" cy="4" r="290.01" stroke-width=".54"/>
    <circle cx="504.8" cy="3.93" r="300.31" stroke-width=".53"/>
    <circle cx="505.46" cy="4.45" r="309.97" stroke-width=".51"/>
    <circle cx="506.08" cy="4.77" r="319.72" stroke-width=".53"/>
    <circle cx="505.86" cy="5.04" r="330.36" stroke-width=".5"/>
    <circle cx="505.12" cy="4.84" r="339.98" stroke-width=".49"/>
    <circle cx="505.72" cy="5.3" r="350.15" stroke-width=".53"/>
    <circle cx="505.14" cy="5.18" r="360.04" stroke-width=".52"/>
    <circle cx="504.73" cy="5.21" r="370.11" stroke-width=".47"/>
    <circle cx="504.11" cy="5.54" r="380.18" stroke-width=".49"/>
    <circle cx="503.92" cy="4.96" r="390.36" stroke-width=".52"/>
    <circle cx="503.89" cy="4.46" r="399.99" stroke-width=".54"/>
    <circle cx="504.24" cy="4.3" r="409.8" stroke-width=".47"/>
    <circle cx="503.78" cy="5" r="420.32" stroke-width=".45"/>
    <circle cx="504.32" cy="4.54" r="429.78" stroke-width=".48"/>
    <circle cx="504.91" cy="4.3" r="440.13" stroke-width=".47"/>
    <circle cx="504.74" cy="4.27" r="449.86" stroke-width=".47"/>
    <circle cx="505.14" cy="4.39" r="460.25" stroke-width=".5"/>
    <circle cx="505.79" cy="4.54" r="470.31" stroke-width=".52"/>
    <circle cx="505.3" cy="4.18" r="480.17" stroke-width=".53"/>
    <circle cx="504.92" cy="3.71" r="490.09" stroke-width=".47"/>
    <circle cx="505.48" cy="2.97" r="499.95" stroke-width=".55"/>
    <circle cx="505.89" cy="2.32" r="510.34" stroke-width=".54"/>
    <circle cx="505.59" cy="2.96" r="520.12" stroke-width=".52"/>
    <circle cx="505.83" cy="3.46" r="530.31" stroke-width=".5"/>
    <circle cx="505.18" cy="3.77" r="539.67" stroke-width=".52"/>
    <circle cx="505.38" cy="3.38" r="549.65" stroke-width=".54"/>
    <circle cx="506.03" cy="2.74" r="560.26" stroke-width=".54"/>
    <circle cx="506.45" cy="2.28" r="570.35" stroke-width=".53"/>
    <circle cx="506.66" cy="2.37" r="580.23" stroke-width=".53"/>
    <circle cx="506.32" cy="2.79" r="590.3" stroke-width=".47"/>
    <circle cx="506.76" cy="2.45" r="600.02" stroke-width=".55"/>
    <circle cx="507.29" cy="2.73" r="609.76" stroke-width=".47"/>
    <circle cx="506.61" cy="2.45" r="619.9" stroke-width=".52"/>
    <circle cx="506.02" cy="2.28" r="629.86" stroke-width=".47"/>
    <circle cx="505.92" cy="2.29" r="640.12" stroke-width=".52"/>
    <circle cx="505.63" cy="2.66" r="649.81" stroke-width=".5"/>
    <circle cx="506.09" cy="2.94" r="660.36" stroke-width=".52"/>
    <circle cx="506.42" cy="3.64" r="669.73" stroke-width=".48"/>
    <circle cx="506.02" cy="4.17" r="680.01" stroke-width=".48"/>
    <circle cx="505.42" cy="4.83" r="690.36" stroke-width=".48"/>
    <circle cx="504.71" cy="4.53" r="700.34" stroke-width=".5"/>
    <circle cx="505.15" cy="4.18" r="710.31" stroke-width=".52"/>
    <circle cx="505.41" cy="3.43" r="719.97" stroke-width=".51"/>
    <circle cx="505.68" cy="3.07" r="730.36" stroke-width=".5"/>
    <circle cx="506.11" cy="2.66" r="739.77" stroke-width=".48"/>
    <circle cx="505.45" cy="3.09" r="749.94" stroke-width=".53"/>
    <circle cx="505.53" cy="3.29" r="759.8" stroke-width=".55"/>
    <circle cx="505.52" cy="2.96" r="770.25" stroke-width=".45"/>
    <circle cx="504.99" cy="2.46" r="779.65" stroke-width=".5"/>
    <circle cx="504.41" cy="1.72" r="790.15" stroke-width=".5"/>
    <circle cx="505.15" cy="2.23" r="799.84" stroke-width=".53"/>
    <circle cx="504.41" cy="1.8" r="809.88" stroke-width=".5"/>
    <circle cx="504.51" cy="2.07" r="819.63" stroke-width=".5"/>
    <circle cx="504.2" cy="2.21" r="829.66" stroke-width=".53"/>
    <circle cx="504.67" cy="2.09" r="840.36" stroke-width=".45"/>
    <circle cx="504.3" cy="2.67" r="849.93" stroke-width=".45"/>
    <circle cx="504.77" cy="2.76" r="860.05" stroke-width=".46"/>
    <circle cx="505.14" cy="2.27" r="870.13" stroke-width=".53"/>
    <circle cx="504.51" cy="1.57" r="880.34" stroke-width=".49"/>
    <circle cx="504.8" cy=".99" r="889.92" stroke-width=".48"/>
    <circle cx="504.34" cy=".6" r="899.68" stroke-width=".51"/>
    <circle cx="504.26" cy=".47" r="909.73" stroke-width=".53"/>
    <circle cx="503.72" cy="1.11" r="919.8" stroke-width=".54"/>
    <circle cx="503.67" cy="1.4" r="929.74" stroke-width=".54"/>
    <circle cx="503.41" cy="1.98" r="939.74" stroke-width=".46"/>
    <circle cx="503.54" cy="1.29" r="950.01" stroke-width=".54"/>
    <circle cx="503.96" cy=".6" r="959.82" stroke-width=".52"/>
    <circle cx="503.86" cy="1.05" r="970.27" stroke-width=".49"/>
    <circle cx="504.23" cy="1.69" r="980.37" stroke-width=".46"/>
    <circle cx="503.63" cy="1.55" r="989.98" stroke-width=".54"/>
    <circle cx="503.55" cy="1.7" r="1000.03" stroke-width=".52"/>
    <circle cx="503.94" cy="1.74" r="1009.84" stroke-width=".52"/>
    <circle cx="503.48" cy="1.09" r="1019.71" stroke-width=".46"/>
    <circle cx="503.33" cy="1.14" r="1029.81" stroke-width=".54"/>
    <circle cx="503.43" cy="1.29" r="1040.11" stroke-width=".49"/>
    <circle cx="503.27" cy="1.45" r="1050.37" stroke-width=".51"/>
    <circle cx="503.11" cy="2.14" r="1060.08" stroke-width=".54"/>
    <circle cx="503.68" cy="2.36" r="1070.06" stroke-width=".5"/>
    <circle cx="503.78" cy="2.61" r="1080.23" stroke-width=".54"/>
    <circle cx="503.47" cy="2.97" r="1089.67" stroke-width=".52"/>
    <circle cx="503.91" cy="3.7" r="1099.82" stroke-width=".47"/>
    <circle cx="503.67" cy="3.75" r="1110.04" stroke-width=".48"/>
    <circle cx="503.77" cy="3.18" r="1119.97" stroke-width=".48"/>
    <circle cx="504.16" cy="3.87" r="1129.82" stroke-width=".49"/>
    <circle cx="504.12" cy="3.21" r="1139.8" stroke-width=".5"/>
    <circle cx="503.61" cy="3.51" r="1150.12" stroke-width=".46"/>
    <circle cx="503.24" cy="3.15" r="1160.29" stroke-width=".53"/>
    <circle cx="503.22" cy="3.5" r="1170.12" stroke-width=".49"/>
    <circle cx="503.75" cy="3.35" r="1180.01" stroke-width=".55"/>
    <circle cx="503.11" cy="2.71" r="1190.2" stroke-width=".52"/>
    <circle cx="502.89" cy="2.42" r="1200.07" stroke-width=".47"/>
    <circle cx="502.2" cy="2.53" r="1210.02" stroke-width=".48"/>
    <circle cx="502.5" cy="2.9" r="1220.29" stroke-width=".48"/>
    <circle cx="502.36" cy="2.64" r="1229.77" stroke-width=".49"/>
    <circle cx="501.99" cy="2.32" r="1240.15" stroke-width=".47"/>
    <circle cx="501.32" cy="1.63" r="1250.13" stroke-width=".54"/>
    <circle cx="501.29" cy="1.6" r="1260.24" stroke-width=".46"/>
    <circle cx="500.71" cy=".88" r="1270.24" stroke-width=".48"/>
    <circle cx="500.4" cy=".96" r="1280.24" stroke-width=".53"/>
    <circle cx="500.66" cy=".3" r="1289.76" stroke-width=".49"/>
    <circle cx="500.08" cy="-.28" r="1300.24" stroke-width=".55"/>
    <circle cx="500.41" cy="-1.03" r="1309.75" stroke-width=".47"/>
    <circle cx="499.99" cy="-.84" r="1320.35" stroke-width=".48"/>
    <circle cx="500.35" cy="-.14" r="1330.29" stroke-width=".52"/>
    <circle cx="499.69" cy="-.56" r="1340.08" stroke-width=".54"/>
    <circle cx="499.83" cy="-.29" r="1350.24" stroke-width=".46"/>
    <circle cx="499.7" cy="-.58" r="1359.71" stroke-width=".49"/>
    <circle cx="500.03" cy=".12" r="1369.96" stroke-width=".53"/>
    <circle cx="500.45" cy="-.41" r="1380.11" stroke-width=".5"/>
    <circle cx="500.1" cy=".23" r="1389.95" stroke-width=".48"/>
    <circle cx="500.13" cy=".27" r="1399.83" stroke-width=".5"/>
    <circle cx="500.17" cy=".25" r="1410.09" stroke-width=".55"/>
  </g>
  <defs>
    <clipPath id="a">
      <path d="M10.05 10.66h1000v500h-1000z"/>
    </clipPath>
    <clipPath id="b">
      <path d="M9.35 9.69h1000v500H9.35z"/>
    </clipPath>
    <clipPath id="c">
      <path d="M10.4 9.77h1000v500H10.4z"/>
    </clipPath>
    <clipPath id="d">
      <path d="M9.77 10.57h1000v500H9.77z"/>
    </clipPath>
  </defs>
  <g fill="none" stroke="#ffac2a" clip-path="url(#b)">
    <circle cx="500.38" cy="499.44" r="9.66" stroke-width=".46"/>
    <circle cx="500.08" cy="499.67" r="19.88" stroke-width=".5"/>
    <circle cx="499.56" cy="499.26" r="29.72" stroke-width=".52"/>
    <circle cx="500.12" cy="499.45" r="39.71" stroke-width=".54"/>
    <circle cx="499.88" cy="499.72" r="50.06" stroke-width=".51"/>
    <circle cx="499.92" cy="500.47" r="60.09" stroke-width=".45"/>
    <circle cx="500.24" cy="500.87" r="70.24" stroke-width=".47"/>
    <circle cx="500.77" cy="500.98" r="80.36" stroke-width=".51"/>
    <circle cx="500.83" cy="501" r="90.36" stroke-width=".52"/>
    <circle cx="500.82" cy="500.26" r="99.99" stroke-width=".5"/>
    <circle cx="501.17" cy="500.06" r="110.28" stroke-width=".5"/>
    <circle cx="500.56" cy="500.11" r="120.07" stroke-width=".54"/>
    <circle cx="500.75" cy="500.31" r="130.2" stroke-width=".48"/>
    <circle cx="500.41" cy="500.72" r="140.12" stroke-width=".51"/>
    <circle cx="500.68" cy="500.48" r="149.86" stroke-width=".51"/>
    <circle cx="500.87" cy="499.79" r="159.81" stroke-width=".53"/>
    <circle cx="500.74" cy="499.05" r="170.35" stroke-width=".48"/>
    <circle cx="500.91" cy="498.55" r="180.15" stroke-width=".51"/>
    <circle cx="501.11" cy="498.46" r="190.04" stroke-width=".51"/>
    <circle cx="501.26" cy="498.92" r="200.32" stroke-width=".55"/>
    <circle cx="501.71" cy="498.99" r="209.91" stroke-width=".46"/>
    <circle cx="500.97" cy="498.92" r="220.02" stroke-width=".47"/>
    <circle cx="500.75" cy="499.32" r="230.34" stroke-width=".55"/>
    <circle cx="500.55" cy="498.99" r="239.82" stroke-width=".47"/>
    <circle cx="500.08" cy="498.25" r="249.98" stroke-width=".48"/>
    <circle cx="499.48" cy="498.57" r="260.3" stroke-width=".52"/>
    <circle cx="499.69" cy="498.29" r="270.36" stroke-width=".55"/>
    <circle cx="499.8" cy="498.05" r="280.09" stroke-width=".55"/>
    <circle cx="499.21" cy="497.95" r="290.3" stroke-width=".49"/>
    <circle cx="499.13" cy="497.52" r="299.68" stroke-width=".48"/>
    <circle cx="499.51" cy="497.94" r="309.98" stroke-width=".47"/>
    <circle cx="499.6" cy="498.48" r="320.36" stroke-width=".54"/>
    <circle cx="500.05" cy="498.76" r="330.34" stroke-width=".49"/>
    <circle cx="499.68" cy="498.91" r="340.1" stroke-width=".49"/>
    <circle cx="499.48" cy="498.77" r="350.14" stroke-width=".47"/>
    <circle cx="499.27" cy="498.37" r="360.1" stroke-width=".54"/>
    <circle cx="499" cy="499.09" r="370.19" stroke-width=".54"/>
    <circle cx="498.38" cy="499.09" r="380.29" stroke-width=".53"/>
    <circle cx="498.42" cy="499.34" r="390.14" stroke-width=".45"/>
    <circle cx="499.01" cy="498.87" r="400.24" stroke-width=".54"/>
    <circle cx="499.42" cy="499.6" r="409.99" stroke-width=".49"/>
    <circle cx="499.75" cy="499.33" r="420.36" stroke-width=".49"/>
    <circle cx="499.55" cy="499.41" r="430.36" stroke-width=".47"/>
    <circle cx="499.88" cy="499.31" r="440.11" stroke-width=".46"/>
    <circle cx="500.41" cy="498.82" r="450.02" stroke-width=".47"/>
    <circle cx="500.49" cy="498.34" r="459.78" stroke-width=".52"/>
    <circle cx="501.07" cy="499.08" r="470.3" stroke-width=".49"/>
    <circle cx="500.8" cy="499.06" r="480.31" stroke-width=".47"/>
    <circle cx="501.26" cy="498.97" r="490.13" stroke-width=".54"/>
    <circle cx="500.87" cy="498.84" r="500.05" stroke-width=".48"/>
    <circle cx="500.27" cy="498.36" r="510.11" stroke-width=".48"/>
    <circle cx="499.81" cy="498.09" r="519.67" stroke-width=".5"/>
    <circle cx="500.19" cy="497.48" r="529.99" stroke-width=".46"/>
    <circle cx="500.89" cy="497.78" r="540.31" stroke-width=".51"/>
    <circle cx="500.28" cy="497.58" r="549.67" stroke-width=".48"/>
    <circle cx="500.96" cy="497.6" r="559.89" stroke-width=".52"/>
    <circle cx="501.44" cy="496.91" r="569.86" stroke-width=".53"/>
    <circle cx="501.09" cy="496.52" r="579.94" stroke-width=".51"/>
    <circle cx="500.82" cy="496.12" r="590.14" stroke-width=".48"/>
    <circle cx="500.92" cy="496.75" r="599.85" stroke-width=".49"/>
    <circle cx="500.66" cy="496.33" r="610.08" stroke-width=".49"/>
    <circle cx="500.83" cy="496.91" r="619.92" stroke-width=".45"/>
    <circle cx="501.41" cy="497.13" r="629.97" stroke-width=".5"/>
    <circle cx="500.81" cy="497.38" r="640.02" stroke-width=".48"/>
    <circle cx="501.24" cy="497.75" r="649.77" stroke-width=".53"/>
    <circle cx="501.16" cy="497.32" r="660.33" stroke-width=".46"/>
    <circle cx="501.33" cy="497.99" r="670.01" stroke-width=".54"/>
    <circle cx="501.2" cy="497.99" r="679.76" stroke-width=".46"/>
    <circle cx="501.19" cy="498.1" r="689.71" stroke-width=".46"/>
    <circle cx="501.52" cy="498.82" r="700.34" stroke-width=".53"/>
    <circle cx="502.21" cy="498.91" r="709.86" stroke-width=".51"/>
    <circle cx="502.28" cy="498.22" r="719.75" stroke-width=".45"/>
    <circle cx="502.88" cy="498.07" r="730.23" stroke-width=".49"/>
    <circle cx="502.57" cy="497.77" r="739.71" stroke-width=".54"/>
    <circle cx="502.55" cy="497.35" r="749.65" stroke-width=".49"/>
    <circle cx="502.55" cy="498.01" r="759.63" stroke-width=".49"/>
    <circle cx="502.51" cy="498.75" r="769.66" stroke-width=".55"/>
    <circle cx="502.22" cy="499.09" r="779.85" stroke-width=".48"/>
    <circle cx="502.49" cy="499.41" r="790" stroke-width=".51"/>
    <circle cx="502.52" cy="499.24" r="800.18" stroke-width=".49"/>
    <circle cx="502.86" cy="499.14" r="810.31" stroke-width=".54"/>
    <circle cx="502.45" cy="499.31" r="819.67" stroke-width=".54"/>
    <circle cx="502.58" cy="498.95" r="829.63" stroke-width=".46"/>
    <circle cx="501.94" cy="499.25" r="840.06" stroke-width=".48"/>
    <circle cx="502.47" cy="499.61" r="850.2" stroke-width=".51"/>
    <circle cx="502.31" cy="499.45" r="860.26" stroke-width=".49"/>
    <circle cx="503.05" cy="499.29" r="870.2" stroke-width=".54"/>
    <circle cx="502.79" cy="499.42" r="880.14" stroke-width=".55"/>
    <circle cx="502.85" cy="499.03" r="890.17" stroke-width=".45"/>
    <circle cx="502.91" cy="499.62" r="899.91" stroke-width=".46"/>
    <circle cx="502.81" cy="500.01" r="910.01" stroke-width=".54"/>
    <circle cx="502.75" cy="500.57" r="919.76" stroke-width=".53"/>
    <circle cx="502.27" cy="501.24" r="929.93" stroke-width=".48"/>
    <circle cx="501.6" cy="501.97" r="939.84" stroke-width=".46"/>
    <circle cx="501.93" cy="501.36" r="949.94" stroke-width=".54"/>
    <circle cx="501.32" cy="501.64" r="959.92" stroke-width=".53"/>
    <circle cx="501.37" cy="502.03" r="969.91" stroke-width=".5"/>
    <circle cx="500.72" cy="502.58" r="979.96" stroke-width=".51"/>
    <circle cx="500.88" cy="502.02" r="990.21" stroke-width=".47"/>
    <circle cx="501.56" cy="501.56" r="1000.02" stroke-width=".47"/>
    <circle cx="501.78" cy="501.61" r="1009.88" stroke-width=".48"/>
    <circle cx="502.23" cy="501.41" r="1019.78" stroke-width=".46"/>
    <circle cx="502.93" cy="501.82" r="1030.04" stroke-width=".46"/>
    <circle cx="503.32" cy="501.84" r="1040.1" stroke-width=".52"/>
    <circle cx="503.24" cy="502.14" r="1050.11" stroke-width=".46"/>
    <circle cx="503.94" cy="501.66" r="1060.31" stroke-width=".52"/>
    <circle cx="503.98" cy="501.34" r="1069.63" stroke-width=".5"/>
    <circle cx="504.37" cy="501.49" r="1079.9" stroke-width=".49"/>
    <circle cx="503.88" cy="501.48" r="1089.73" stroke-width=".49"/>
    <circle cx="503.54" cy="501.4" r="1100.04" stroke-width=".48"/>
    <circle cx="503.08" cy="500.79" r="1109.64" stroke-width=".52"/>
    <circle cx="503.09" cy="501.14" r="1120.03" stroke-width=".54"/>
    <circle cx="502.37" cy="500.45" r="1129.76" stroke-width=".48"/>
    <circle cx="501.77" cy="500.39" r="1139.95" stroke-width=".53"/>
    <circle cx="501.85" cy="500.9" r="1150.32" stroke-width=".53"/>
    <circle cx="501.57" cy="500.81" r="1160.01" stroke-width=".47"/>
    <circle cx="502.09" cy="500.31" r="1170.02" stroke-width=".5"/>
    <circle cx="501.41" cy="500.57" r="1180.1" stroke-width=".53"/>
    <circle cx="501.07" cy="500.96" r="1190.21" stroke-width=".49"/>
    <circle cx="501.07" cy="500.47" r="1200.3" stroke-width=".53"/>
    <circle cx="500.37" cy="499.93" r="1210.15" stroke-width=".5"/>
    <circle cx="500.2" cy="500.02" r="1220.26" stroke-width=".49"/>
    <circle cx="500.49" cy="499.41" r="1230.11" stroke-width=".54"/>
    <circle cx="500.82" cy="498.74" r="1240.21" stroke-width=".54"/>
    <circle cx="501.56" cy="499.23" r="1249.8" stroke-width=".45"/>
    <circle cx="501.56" cy="499.53" r="1260.2" stroke-width=".49"/>
    <circle cx="502.09" cy="499.03" r="1269.66" stroke-width=".54"/>
    <circle cx="501.36" cy="498.72" r="1280.05" stroke-width=".49"/>
    <circle cx="501.16" cy="499.21" r="1290.18" stroke-width=".48"/>
    <circle cx="500.75" cy="499.48" r="1300.09" stroke-width=".47"/>
    <circle cx="500.44" cy="499.02" r="1309.85" stroke-width=".47"/>
    <circle cx="501.12" cy="498.91" r="1319.66" stroke-width=".49"/>
    <circle cx="500.64" cy="498.29" r="1330.07" stroke-width=".55"/>
    <circle cx="500.01" cy="499.02" r="1340.2" stroke-width=".47"/>
    <circle cx="500.44" cy="499.2" r="1349.95" stroke-width=".49"/>
    <circle cx="501.12" cy="499.08" r="1359.87" stroke-width=".51"/>
    <circle cx="500.86" cy="499.02" r="1369.95" stroke-width=".48"/>
    <circle cx="500.85" cy="499.67" r="1380.16" stroke-width=".51"/>
    <circle cx="500.94" cy="500.31" r="1390.34" stroke-width=".54"/>
    <circle cx="500.26" cy="500.47" r="1400.05" stroke-width=".53"/>
    <circle cx="500.84" cy="500.3" r="1410.13" stroke-width=".47"/>
  </g>
  <g fill="none" stroke="#ff8756" clip-path="url(#c)">
    <circle cx=".44" cy="249.73" r="9.92" stroke-width=".52"/>
    <circle cx=".08" cy="250.07" r="20.27" stroke-width=".5"/>
    <circle cx=".53" cy="250.04" r="29.9" stroke-width=".45"/>
    <circle cx=".22" cy="249.72" r="39.88" stroke-width=".52"/>
    <circle cx=".16" cy="249.61" r="49.65" stroke-width=".46"/>
    <circle cx=".9" cy="250.23" r="59.87" stroke-width=".45"/>
    <circle cx=".49" cy="250.33" r="70.26" stroke-width=".51"/>
    <circle cx=".14" cy="250.78" r="79.95" stroke-width=".51"/>
    <circle cx=".63" cy="250.91" r="90.33" stroke-width=".46"/>
    <circle cx=".12" cy="250.33" r="100.05" stroke-width=".47"/>
    <circle cx="-.63" cy="249.88" r="110.29" stroke-width=".46"/>
    <circle cx="-1.13" cy="250.09" r="120.1" stroke-width=".53"/>
    <circle cx="-1.22" cy="250.22" r="129.73" stroke-width=".48"/>
    <circle cx="-1.64" cy="250.53" r="139.93" stroke-width=".5"/>
    <circle cx="-1.88" cy="250.93" r="150.25" stroke-width=".53"/>
    <circle cx="-1.16" cy="251.09" r="159.65" stroke-width=".52"/>
    <circle cx="-.71" cy="250.98" r="170.09" stroke-width=".49"/>
    <circle cx="-1.17" cy="250.99" r="179.89" stroke-width=".46"/>
    <circle cx="-1.09" cy="250.81" r="190.31" stroke-width=".51"/>
    <circle cx="-.75" cy="250.97" r="199.97" stroke-width=".48"/>
    <circle cx="-.98" cy="250.45" r="210.25" stroke-width=".52"/>
    <circle cx="-1.68" cy="250.98" r="220.19" stroke-width=".5"/>
    <circle cx="-1.36" cy="251.36" r="230.28" stroke-width=".5"/>
    <circle cx="-1.19" cy="251.96" r="239.95" stroke-width=".47"/>
    <circle cx="-1.31" cy="252.21" r="250.18" stroke-width=".48"/>
    <circle cx="-.75" cy="252.23" r="260.23" stroke-width=".53"/>
    <circle cx="-.89" cy="252.73" r="269.98" stroke-width=".51"/>
    <circle cx="-.69" cy="252.37" r="279.75" stroke-width=".48"/>
    <circle cx="-.73" cy="253.06" r="290.33" stroke-width=".46"/>
    <circle cx="-.39" cy="253.22" r="299.73" stroke-width=".49"/>
    <circle cx="-1.07" cy="253" r="310.31" stroke-width=".54"/>
    <circle cx="-1.17" cy="253.26" r="319.84" stroke-width=".51"/>
    <circle cx="-.48" cy="253.57" r="330.25" stroke-width=".48"/>
    <circle cx="-.46" cy="253.86" r="340.06" stroke-width=".52"/>
    <circle cx="-.64" cy="253.63" r="350.1" stroke-width=".52"/>
    <circle cx="-.62" cy="253.81" r="359.85" stroke-width=".54"/>
    <circle cx="-.26" cy="253.42" r="370.15" stroke-width=".47"/>
    <circle cx="-.67" cy="253.72" r="379.92" stroke-width=".55"/>
    <circle cx=".01" cy="253.44" r="390.2" stroke-width=".46"/>
    <circle cx="-.17" cy="252.75" r="399.87" stroke-width=".49"/>
    <circle cx="-.04" cy="252.38" r="409.79" stroke-width=".46"/>
    <circle cx="-.4" cy="252.21" r="420.27" stroke-width=".54"/>
    <circle cx="-1.03" cy="252.48" r="429.86" stroke-width=".49"/>
    <circle cx="-1.42" cy="253.15" r="440.22" stroke-width=".52"/>
    <circle cx="-1.17" cy="252.4" r="449.98" stroke-width=".49"/>
    <circle cx="-1.32" cy="251.93" r="460.11" stroke-width=".47"/>
    <circle cx="-.83" cy="251.5" r="469.82" stroke-width=".47"/>
    <circle cx="-.64" cy="250.86" r="480.12" stroke-width=".52"/>
    <circle cx="-1.33" cy="250.55" r="489.81" stroke-width=".47"/>
    <circle cx="-1.5" cy="251.25" r="499.88" stroke-width=".52"/>
    <circle cx="-1.56" cy="251.06" r="510.03" stroke-width=".49"/>
    <circle cx="-2.26" cy="251.51" r="519.93" stroke-width=".48"/>
    <circle cx="-2.72" cy="251.51" r="530.27" stroke-width=".51"/>
    <circle cx="-2.06" cy="250.97" r="539.9" stroke-width=".46"/>
    <circle cx="-2.31" cy="250.99" r="550.05" stroke-width=".46"/>
    <circle cx="-2.99" cy="250.56" r="559.73" stroke-width=".52"/>
    <circle cx="-3.71" cy="251.24" r="569.77" stroke-width=".47"/>
    <circle cx="-4" cy="251.09" r="579.87" stroke-width=".46"/>
    <circle cx="-4.23" cy="251.76" r="589.89" stroke-width=".5"/>
    <circle cx="-4.01" cy="252.14" r="600.28" stroke-width=".53"/>
    <circle cx="-4.6" cy="252.22" r="609.96" stroke-width=".51"/>
    <circle cx="-4.25" cy="251.75" r="619.73" stroke-width=".52"/>
    <circle cx="-4.96" cy="251.66" r="629.92" stroke-width=".45"/>
    <circle cx="-4.32" cy="251.47" r="640.16" stroke-width=".52"/>
    <circle cx="-4.97" cy="251.65" r="649.85" stroke-width=".46"/>
    <circle cx="-5.41" cy="251.84" r="660.06" stroke-width=".53"/>
    <circle cx="-5.75" cy="251.57" r="669.92" stroke-width=".51"/>
    <circle cx="-6.16" cy="251.09" r="680.28" stroke-width=".48"/>
    <circle cx="-6.71" cy="251.54" r="690.18" stroke-width=".45"/>
    <circle cx="-6.49" cy="251.13" r="700.12" stroke-width=".54"/>
    <circle cx="-6.52" cy="251.65" r="709.77" stroke-width=".52"/>
    <circle cx="-5.99" cy="251.79" r="720.04" stroke-width=".51"/>
    <circle cx="-5.47" cy="251.24" r="730.14" stroke-width=".54"/>
    <circle cx="-5.23" cy="250.63" r="740.37" stroke-width=".46"/>
    <circle cx="-5.22" cy="249.88" r="750.36" stroke-width=".52"/>
    <circle cx="-4.64" cy="249.79" r="760.35" stroke-width=".46"/>
    <circle cx="-4.51" cy="249.21" r="770.35" stroke-width=".47"/>
    <circle cx="-3.89" cy="249.84" r="780.34" stroke-width=".5"/>
    <circle cx="-3.59" cy="249.3" r="790.16" stroke-width=".53"/>
    <circle cx="-3.81" cy="248.68" r="800.36" stroke-width=".47"/>
    <circle cx="-3.52" cy="247.98" r="810.19" stroke-width=".47"/>
    <circle cx="-3.05" cy="248.32" r="819.85" stroke-width=".52"/>
    <circle cx="-3.13" cy="248.26" r="830.26" stroke-width=".5"/>
    <circle cx="-3.47" cy="248.21" r="839.72" stroke-width=".55"/>
    <circle cx="-3.21" cy="248.18" r="849.96" stroke-width=".51"/>
    <circle cx="-3.61" cy="248.32" r="860.04" stroke-width=".51"/>
    <circle cx="-3.78" cy="248.76" r="870.18" stroke-width=".46"/>
    <circle cx="-4.08" cy="248.59" r="880.22" stroke-width=".5"/>
    <circle cx="-4.28" cy="249.16" r="890.26" stroke-width=".47"/>
    <circle cx="-3.6" cy="249.58" r="900.36" stroke-width=".5"/>
    <circle cx="-2.97" cy="250.24" r="909.71" stroke-width=".47"/>
    <circle cx="-3.36" cy="250.72" r="920.01" stroke-width=".47"/>
    <circle cx="-3.87" cy="251.06" r="930.3" stroke-width=".5"/>
    <circle cx="-4.28" cy="251.07" r="940.1" stroke-width=".46"/>
    <circle cx="-4.31" cy="250.72" r="950.19" stroke-width=".52"/>
    <circle cx="-4.53" cy="250.34" r="959.89" stroke-width=".52"/>
    <circle cx="-4.38" cy="250.74" r="970.11" stroke-width=".5"/>
    <circle cx="-5" cy="250.73" r="980.06" stroke-width=".45"/>
    <circle cx="-5.02" cy="249.99" r="990.19" stroke-width=".51"/>
    <circle cx="-5.23" cy="249.64" r="1000.02" stroke-width=".49"/>
    <circle cx="-5.31" cy="249.67" r="1010.09" stroke-width=".5"/>
    <circle cx="-5.46" cy="249.74" r="1019.96" stroke-width=".48"/>
    <circle cx="-4.87" cy="249.52" r="1029.86" stroke-width=".51"/>
    <circle cx="-4.52" cy="249.06" r="1039.92" stroke-width=".46"/>
    <circle cx="-4.55" cy="249.41" r="1049.84" stroke-width=".52"/>
    <circle cx="-4.03" cy="249.14" r="1060.31" stroke-width=".52"/>
    <circle cx="-4.6" cy="249.47" r="1069.99" stroke-width=".53"/>
    <circle cx="-5.03" cy="249.07" r="1080.12" stroke-width=".52"/>
    <circle cx="-4.84" cy="249.41" r="1090" stroke-width=".47"/>
    <circle cx="-4.79" cy="249.53" r="1099.67" stroke-width=".47"/>
    <circle cx="-4.32" cy="249.27" r="1110.25" stroke-width=".46"/>
    <circle cx="-4.15" cy="249.46" r="1120.25" stroke-width=".5"/>
    <circle cx="-3.9" cy="248.72" r="1129.99" stroke-width=".53"/>
    <circle cx="-3.7" cy="248.99" r="1139.76" stroke-width=".46"/>
    <circle cx="-3.19" cy="248.66" r="1150.15" stroke-width=".53"/>
    <circle cx="-2.99" cy="248.11" r="1159.75" stroke-width=".52"/>
    <circle cx="-2.44" cy="247.69" r="1170.26" stroke-width=".48"/>
    <circle cx="-1.91" cy="248.43" r="1180.09" stroke-width=".47"/>
    <circle cx="-2.2" cy="248.52" r="1189.86" stroke-width=".54"/>
    <circle cx="-1.46" cy="248.38" r="1199.83" stroke-width=".5"/>
    <circle cx="-1.47" cy="249.1" r="1210.27" stroke-width=".45"/>
    <circle cx="-1.27" cy="248.79" r="1220.06" stroke-width=".52"/>
    <circle cx="-1.35" cy="248.8" r="1230.31" stroke-width=".54"/>
    <circle cx="-1.9" cy="249.14" r="1239.63" stroke-width=".51"/>
    <circle cx="-1.84" cy="248.57" r="1249.84" stroke-width=".46"/>
    <circle cx="-2.09" cy="247.85" r="1259.85" stroke-width=".52"/>
    <circle cx="-1.44" cy="248.01" r="1270" stroke-width=".47"/>
    <circle cx="-1.3" cy="247.52" r="1279.98" stroke-width=".49"/>
    <circle cx="-1.08" cy="247.29" r="1289.73" stroke-width=".49"/>
    <circle cx="-.88" cy="247.02" r="1299.78" stroke-width=".47"/>
    <circle cx="-1.48" cy="246.6" r="1310.33" stroke-width=".47"/>
    <circle cx="-2.18" cy="245.89" r="1320.03" stroke-width=".46"/>
    <circle cx="-2.38" cy="246.34" r="1329.91" stroke-width=".46"/>
    <circle cx="-1.64" cy="246.93" r="1339.98" stroke-width=".55"/>
    <circle cx="-1.41" cy="246.79" r="1350.12" stroke-width=".48"/>
    <circle cx="-1.27" cy="246.51" r="1360.28" stroke-width=".5"/>
    <circle cx="-1.6" cy="246.25" r="1369.91" stroke-width=".51"/>
    <circle cx="-.99" cy="246.47" r="1379.97" stroke-width=".46"/>
    <circle cx="-.5" cy="247.15" r="1390.14" stroke-width=".51"/>
    <circle cx="-.5" cy="247.59" r="1400.05" stroke-width=".54"/>
    <circle cx="-.38" cy="247.63" r="1409.86" stroke-width=".49"/>
  </g>
  <g fill="none" stroke="#f4b3c3" clip-path="url(#d)">
    <circle cx="999.36" cy="249.74" r="10.37" stroke-width=".49"/>
    <circle cx="999.14" cy="249.38" r="20.16" stroke-width=".49"/>
    <circle cx="999.49" cy="249.19" r="29.94" stroke-width=".53"/>
    <circle cx="1000.09" cy="249.11" r="40.1" stroke-width=".47"/>
    <circle cx="1000.19" cy="249.28" r="50.34" stroke-width=".54"/>
    <circle cx="1000.19" cy="248.65" r="59.74" stroke-width=".5"/>
    <circle cx="999.7" cy="248.2" r="70.37" stroke-width=".49"/>
    <circle cx="1000.42" cy="247.45" r="79.99" stroke-width=".47"/>
    <circle cx="1000.03" cy="247.27" r="90.18" stroke-width=".51"/>
    <circle cx="1000.74" cy="247.78" r="99.96" stroke-width=".47"/>
    <circle cx="1001.3" cy="248.14" r="109.7" stroke-width=".53"/>
    <circle cx="1001.39" cy="248.03" r="120.07" stroke-width=".49"/>
    <circle cx="1001.1" cy="248.39" r="130.21" stroke-width=".53"/>
    <circle cx="1001.51" cy="248.19" r="139.8" stroke-width=".54"/>
    <circle cx="1000.78" cy="248" r="150.26" stroke-width=".54"/>
    <circle cx="1001.24" cy="248.56" r="159.74" stroke-width=".53"/>
    <circle cx="1001.54" cy="247.94" r="169.78" stroke-width=".49"/>
    <circle cx="1001" cy="247.9" r="179.84" stroke-width=".51"/>
    <circle cx="1001.57" cy="247.27" r="189.71" stroke-width=".52"/>
    <circle cx="1001.54" cy="247.28" r="200.24" stroke-width=".47"/>
    <circle cx="1001.65" cy="247.05" r="209.9" stroke-width=".52"/>
    <circle cx="1001.14" cy="246.98" r="220.03" stroke-width=".51"/>
    <circle cx="1000.44" cy="247.61" r="229.76" stroke-width=".47"/>
    <circle cx="1000.36" cy="248.15" r="239.96" stroke-width=".46"/>
    <circle cx="999.87" cy="248.68" r="249.78" stroke-width=".5"/>
    <circle cx="1000.48" cy="248.67" r="259.92" stroke-width=".45"/>
    <circle cx="1000.96" cy="248.02" r="269.76" stroke-width=".48"/>
    <circle cx="1000.96" cy="247.57" r="280.21" stroke-width=".47"/>
    <circle cx="1001.52" cy="247.25" r="290.16" stroke-width=".46"/>
    <circle cx="1001.6" cy="247.44" r="299.74" stroke-width=".51"/>
    <circle cx="1001.14" cy="246.85" r="309.77" stroke-width=".51"/>
    <circle cx="1000.71" cy="247.1" r="320.23" stroke-width=".46"/>
    <circle cx="1001.14" cy="246.59" r="329.85" stroke-width=".48"/>
    <circle cx="1000.96" cy="246.49" r="339.98" stroke-width=".47"/>
    <circle cx="1000.61" cy="246.73" r="350.12" stroke-width=".54"/>
    <circle cx="1000.31" cy="247.38" r="360.24" stroke-width=".49"/>
    <circle cx="1000.83" cy="247.82" r="370.09" stroke-width=".47"/>
    <circle cx="1000.68" cy="248.47" r="380.08" stroke-width=".47"/>
    <circle cx="1000.23" cy="247.81" r="389.75" stroke-width=".54"/>
    <circle cx="1000.23" cy="248.24" r="400.37" stroke-width=".45"/>
    <circle cx="1000.2" cy="247.77" r="409.82" stroke-width=".55"/>
    <circle cx="999.66" cy="247.98" r="419.87" stroke-width=".46"/>
    <circle cx="1000.39" cy="247.34" r="429.84" stroke-width=".54"/>
    <circle cx="1000.56" cy="246.93" r="439.79" stroke-width=".53"/>
    <circle cx="1000.87" cy="246.58" r="450.14" stroke-width=".52"/>
    <circle cx="1000.93" cy="245.84" r="460.07" stroke-width=".54"/>
    <circle cx="1001.44" cy="246.54" r="470.36" stroke-width=".52"/>
    <circle cx="1001.99" cy="246.46" r="480.04" stroke-width=".46"/>
    <circle cx="1002.49" cy="246" r="489.67" stroke-width=".46"/>
    <circle cx="1003.07" cy="246.1" r="500.31" stroke-width=".53"/>
    <circle cx="1003.82" cy="246.74" r="509.85" stroke-width=".5"/>
    <circle cx="1004.17" cy="246.63" r="520.19" stroke-width=".52"/>
    <circle cx="1004.11" cy="245.99" r="529.71" stroke-width=".46"/>
    <circle cx="1004.4" cy="246.13" r="540.34" stroke-width=".53"/>
    <circle cx="1005.1" cy="245.56" r="550.04" stroke-width=".46"/>
    <circle cx="1005.41" cy="245.02" r="560.26" stroke-width=".55"/>
    <circle cx="1005.33" cy="245.63" r="570.07" stroke-width=".47"/>
    <circle cx="1005.14" cy="245.12" r="579.64" stroke-width=".49"/>
    <circle cx="1004.99" cy="245.34" r="589.86" stroke-width=".46"/>
    <circle cx="1005.55" cy="245.86" r="599.67" stroke-width=".46"/>
    <circle cx="1005.71" cy="245.92" r="610.27" stroke-width=".46"/>
    <circle cx="1005.41" cy="245.8" r="620.02" stroke-width=".53"/>
    <circle cx="1005.57" cy="245.26" r="630.34" stroke-width=".49"/>
    <circle cx="1005.45" cy="245.74" r="639.7" stroke-width=".53"/>
    <circle cx="1006.08" cy="246.02" r="649.77" stroke-width=".48"/>
    <circle cx="1005.44" cy="245.99" r="660.23" stroke-width=".51"/>
    <circle cx="1005.74" cy="246.17" r="669.97" stroke-width=".49"/>
    <circle cx="1005.37" cy="246.42" r="680.14" stroke-width=".51"/>
    <circle cx="1004.74" cy="246.85" r="690.34" stroke-width=".53"/>
    <circle cx="1004.19" cy="246.3" r="700.04" stroke-width=".49"/>
    <circle cx="1003.71" cy="246.41" r="709.84" stroke-width=".48"/>
    <circle cx="1003.21" cy="245.7" r="719.96" stroke-width=".5"/>
    <circle cx="1002.72" cy="246.1" r="730.23" stroke-width=".53"/>
    <circle cx="1002.32" cy="246.83" r="739.68" stroke-width=".46"/>
    <circle cx="1001.81" cy="247.05" r="750.14" stroke-width=".51"/>
    <circle cx="1002.53" cy="246.41" r="759.87" stroke-width=".48"/>
    <circle cx="1003.22" cy="245.72" r="769.74" stroke-width=".51"/>
    <circle cx="1003.33" cy="245.82" r="779.99" stroke-width=".55"/>
    <circle cx="1004.01" cy="245.67" r="789.89" stroke-width=".54"/>
    <circle cx="1003.94" cy="244.96" r="799.94" stroke-width=".48"/>
    <circle cx="1003.46" cy="245.42" r="810.02" stroke-width=".48"/>
    <circle cx="1003.19" cy="244.94" r="819.68" stroke-width=".45"/>
    <circle cx="1002.9" cy="244.42" r="830.04" stroke-width=".53"/>
    <circle cx="1002.65" cy="244.4" r="839.74" stroke-width=".52"/>
    <circle cx="1001.97" cy="244.82" r="849.71" stroke-width=".49"/>
    <circle cx="1001.87" cy="244.66" r="860.1" stroke-width=".54"/>
    <circle cx="1002.23" cy="244.95" r="869.8" stroke-width=".52"/>
    <circle cx="1002.56" cy="244.67" r="880.37" stroke-width=".49"/>
    <circle cx="1002.08" cy="244.68" r="889.89" stroke-width=".48"/>
    <circle cx="1001.49" cy="244.2" r="900.11" stroke-width=".51"/>
    <circle cx="1000.98" cy="244.32" r="910.09" stroke-width=".49"/>
    <circle cx="1001.64" cy="244.91" r="920.02" stroke-width=".55"/>
    <circle cx="1001.68" cy="244.5" r="929.93" stroke-width=".53"/>
    <circle cx="1001.75" cy="245.2" r="940.17" stroke-width=".54"/>
    <circle cx="1001.87" cy="245.85" r="950" stroke-width=".51"/>
    <circle cx="1002.41" cy="245.75" r="959.65" stroke-width=".48"/>
    <circle cx="1003.06" cy="246.12" r="969.78" stroke-width=".46"/>
    <circle cx="1002.96" cy="245.75" r="980.27" stroke-width=".51"/>
    <circle cx="1003.41" cy="245.8" r="989.86" stroke-width=".54"/>
    <circle cx="1003.96" cy="245.52" r="999.72" stroke-width=".48"/>
    <circle cx="1003.95" cy="245.59" r="1009.7" stroke-width=".5"/>
    <circle cx="1004.31" cy="245.01" r="1019.76" stroke-width=".52"/>
    <circle cx="1004.01" cy="245.73" r="1029.84" stroke-width=".45"/>
    <circle cx="1003.41" cy="245.72" r="1040.15" stroke-width=".5"/>
    <circle cx="1003.19" cy="246.08" r="1050.18" stroke-width=".49"/>
    <circle cx="1003.39" cy="246.03" r="1059.69" stroke-width=".46"/>
    <circle cx="1003.43" cy="246.18" r="1069.81" stroke-width=".51"/>
    <circle cx="1003.62" cy="246.82" r="1079.67" stroke-width=".52"/>
    <circle cx="1004.35" cy="246.13" r="1090.36" stroke-width=".54"/>
    <circle cx="1005" cy="246.07" r="1100.02" stroke-width=".46"/>
    <circle cx="1005.41" cy="246.26" r="1109.69" stroke-width=".47"/>
    <circle cx="1005.97" cy="245.86" r="1120.01" stroke-width=".47"/>
    <circle cx="1006.07" cy="246.18" r="1130.2" stroke-width=".52"/>
    <circle cx="1006.41" cy="245.75" r="1139.69" stroke-width=".49"/>
    <circle cx="1006.26" cy="246.42" r="1149.94" stroke-width=".5"/>
    <circle cx="1006.01" cy="246.18" r="1159.86" stroke-width=".45"/>
    <circle cx="1006.45" cy="245.74" r="1170.04" stroke-width=".46"/>
    <circle cx="1005.82" cy="246.03" r="1179.9" stroke-width=".47"/>
    <circle cx="1005.32" cy="246.05" r="1190.37" stroke-width=".48"/>
    <circle cx="1005.7" cy="246.62" r="1200.13" stroke-width=".5"/>
    <circle cx="1005.39" cy="246.67" r="1210.34" stroke-width=".53"/>
    <circle cx="1006.1" cy="246.8" r="1220.21" stroke-width=".53"/>
    <circle cx="1005.68" cy="246.24" r="1230.36" stroke-width=".48"/>
    <circle cx="1004.98" cy="245.58" r="1239.67" stroke-width=".5"/>
    <circle cx="1005.17" cy="245.57" r="1250.13" stroke-width=".51"/>
    <circle cx="1005.08" cy="245.39" r="1259.85" stroke-width=".45"/>
    <circle cx="1005.01" cy="244.92" r="1269.83" stroke-width=".51"/>
    <circle cx="1005.35" cy="245.34" r="1279.71" stroke-width=".54"/>
    <circle cx="1005.56" cy="245.28" r="1289.8" stroke-width=".52"/>
    <circle cx="1006.05" cy="245.59" r="1300.01" stroke-width=".53"/>
    <circle cx="1006.22" cy="245.45" r="1309.7" stroke-width=".47"/>
    <circle cx="1006.73" cy="245.08" r="1320.18" stroke-width=".54"/>
    <circle cx="1007.41" cy="245.82" r="1329.99" stroke-width=".49"/>
    <circle cx="1007.05" cy="246.31" r="1340.04" stroke-width=".53"/>
    <circle cx="1006.9" cy="246.11" r="1349.96" stroke-width=".49"/>
    <circle cx="1007.4" cy="246.35" r="1360.34" stroke-width=".47"/>
    <circle cx="1007.57" cy="245.71" r="1370.28" stroke-width=".53"/>
    <circle cx="1007.53" cy="245.9" r="1379.88" stroke-width=".47"/>
    <circle cx="1007.6" cy="245.42" r="1390.36" stroke-width=".47"/>
    <circle cx="1007.73" cy="244.82" r="1399.63" stroke-width=".49"/>
    <circle cx="1007.67" cy="245.53" r="1410.35" stroke-width=".45"/>
  </g>
</svg>
