<svg xmlns="http://www.w3.org/2000/svg" width="1000" height="500">
  <g fill="none" stroke="#97d4cd" clip-path="url(#a)">
    <circle cx="999.3" cy="-.2" r="10.12" stroke-width=".51"/>
    <circle cx="998.75" cy="-.16" r="20.28" stroke-width=".51"/>
    <circle cx="998.18" cy="-.21" r="29.78" stroke-width=".5"/>
    <circle cx="998.59" cy="-.87" r="39.88" stroke-width=".46"/>
    <circle cx="998.13" cy="-1.23" r="49.77" stroke-width=".55"/>
    <circle cx="997.65" cy="-1.71" r="59.65" stroke-width=".47"/>
    <circle cx="997.83" cy="-1.47" r="69.64" stroke-width=".48"/>
    <circle cx="997.2" cy="-1.6" r="79.97" stroke-width=".54"/>
    <circle cx="997.29" cy="-1.24" r="89.87" stroke-width=".46"/>
    <circle cx="997.87" cy="-.79" r="99.77" stroke-width=".48"/>
    <circle cx="997.12" cy="-.43" r="109.87" stroke-width=".46"/>
    <circle cx="997.17" cy="-.5" r="120.01" stroke-width=".47"/>
    <circle cx="996.56" cy="-.05" r="129.78" stroke-width=".49"/>
    <circle cx="997.09" cy="-.28" r="140.17" stroke-width=".47"/>
    <circle cx="996.95" cy="-.19" r="149.92" stroke-width=".5"/>
    <circle cx="997.19" cy="-.61" r="159.8" stroke-width=".55"/>
    <circle cx="997.39" cy="-.87" r="170.02" stroke-width=".48"/>
    <circle cx="996.84" cy="-1.25" r="179.81" stroke-width=".47"/>
    <circle cx="996.15" cy="-.7" r="189.72" stroke-width=".54"/>
    <circle cx="995.45" cy="-1.16" r="200.35" stroke-width=".46"/>
    <circle cx="996.17" cy="-.8" r="210.12" stroke-width=".47"/>
    <circle cx="996.7" cy="-.17" r="219.75" stroke-width=".53"/>
    <circle cx="996.49" cy=".45" r="229.85" stroke-width=".51"/>
    <circle cx="997.22" cy="-.09" r="240.32" stroke-width=".46"/>
    <circle cx="997.51" cy="-.71" r="249.71" stroke-width=".53"/>
    <circle cx="997.77" cy="-.55" r="259.97" stroke-width=".51"/>
    <circle cx="997.9" cy="-.31" r="269.81" stroke-width=".52"/>
    <circle cx="998.11" cy="-.44" r="280.11" stroke-width=".48"/>
    <circle cx="998.61" cy="-1.12" r="290.05" stroke-width=".46"/>
    <circle cx="998.02" cy="-1.65" r="299.9" stroke-width=".51"/>
    <circle cx="998.09" cy="-1.97" r="310.27" stroke-width=".45"/>
    <circle cx="998.28" cy="-2.11" r="320.15" stroke-width=".53"/>
    <circle cx="998.75" cy="-2.21" r="330.08" stroke-width=".55"/>
    <circle cx="998.8" cy="-2.05" r="340.29" stroke-width=".47"/>
    <circle cx="998.74" cy="-2.56" r="349.85" stroke-width=".5"/>
    <circle cx="999.13" cy="-2.61" r="360.31" stroke-width=".52"/>
    <circle cx="999.62" cy="-2.86" r="369.77" stroke-width=".51"/>
    <circle cx="999.01" cy="-2.93" r="379.64" stroke-width=".53"/>
    <circle cx="998.82" cy="-2.82" r="389.8" stroke-width=".5"/>
    <circle cx="999.13" cy="-2.15" r="400.36" stroke-width=".48"/>
    <circle cx="999.02" cy="-2.83" r="409.85" stroke-width=".51"/>
    <circle cx="999.08" cy="-2.9" r="420.24" stroke-width=".45"/>
    <circle cx="998.88" cy="-3.62" r="430.22" stroke-width=".49"/>
    <circle cx="998.16" cy="-3.62" r="440.25" stroke-width=".45"/>
    <circle cx="997.56" cy="-3.02" r="450.26" stroke-width=".46"/>
    <circle cx="997.35" cy="-2.61" r="460.28" stroke-width=".48"/>
    <circle cx="997.77" cy="-2.86" r="469.73" stroke-width=".47"/>
    <circle cx="997.36" cy="-2.71" r="480.16" stroke-width=".54"/>
    <circle cx="997.42" cy="-3.19" r="489.97" stroke-width=".48"/>
    <circle cx="997.64" cy="-3.28" r="499.96" stroke-width=".46"/>
    <circle cx="998.27" cy="-2.63" r="510.28" stroke-width=".45"/>
    <circle cx="997.79" cy="-3.15" r="519.65" stroke-width=".47"/>
    <circle cx="997.5" cy="-3.05" r="530.2" stroke-width=".53"/>
    <circle cx="997.38" cy="-2.58" r="540.02" stroke-width=".45"/>
    <circle cx="997.18" cy="-1.87" r="550.23" stroke-width=".54"/>
    <circle cx="997.49" cy="-1.13" r="559.64" stroke-width=".48"/>
    <circle cx="997.41" cy="-1.04" r="570.24" stroke-width=".5"/>
    <circle cx="996.73" cy="-1.29" r="580.14" stroke-width=".49"/>
    <circle cx="997.31" cy="-.98" r="590.27" stroke-width=".46"/>
    <circle cx="998" cy="-.85" r="600.15" stroke-width=".49"/>
    <circle cx="997.9" cy="-1.17" r="610.21" stroke-width=".48"/>
    <circle cx="998.11" cy="-1.19" r="620.32" stroke-width=".53"/>
    <circle cx="998.48" cy="-1.88" r="629.97" stroke-width=".47"/>
    <circle cx="997.97" cy="-1.58" r="639.9" stroke-width=".49"/>
    <circle cx="998.67" cy="-.84" r="650.02" stroke-width=".51"/>
    <circle cx="999.4" cy="-1.15" r="660.13" stroke-width=".51"/>
    <circle cx="999.96" cy="-.65" r="670.35" stroke-width=".47"/>
    <circle cx="999.63" cy=".06" r="680.32" stroke-width=".48"/>
    <circle cx="999.04" cy="-.37" r="690.32" stroke-width=".55"/>
    <circle cx="999.31" cy="-.09" r="699.95" stroke-width=".53"/>
    <circle cx="998.66" cy=".48" r="709.68" stroke-width=".55"/>
    <circle cx="998.95" cy=".28" r="719.87" stroke-width=".49"/>
    <circle cx="999.45" cy="-.45" r="730.22" stroke-width=".53"/>
    <circle cx="999.99" cy="-.25" r="739.85" stroke-width=".5"/>
    <circle cx="999.92" cy="-.08" r="749.65" stroke-width=".49"/>
    <circle cx="999.35" cy=".31" r="759.8" stroke-width=".51"/>
    <circle cx="999.14" cy="-.19" r="769.68" stroke-width=".48"/>
    <circle cx="999.69" cy=".51" r="779.71" stroke-width=".53"/>
    <circle cx="999.71" cy=".85" r="790.09" stroke-width=".5"/>
    <circle cx="999.06" cy=".51" r="799.69" stroke-width=".46"/>
    <circle cx="999" cy=".21" r="809.97" stroke-width=".53"/>
    <circle cx="999.12" cy="-.28" r="819.8" stroke-width=".5"/>
    <circle cx="999.78" cy="-.35" r="829.83" stroke-width=".46"/>
    <circle cx="1000.23" cy=".03" r="840.36" stroke-width=".53"/>
    <circle cx="1000.29" cy="-.09" r="850.22" stroke-width=".52"/>
    <circle cx="1000.08" cy="-.43" r="860.35" stroke-width=".55"/>
    <circle cx="1000.81" r="869.74" stroke-width=".5"/>
    <circle cx="1000.97" cy=".39" r="879.64" stroke-width=".46"/>
    <circle cx="1001.12" cy=".42" r="889.79" stroke-width=".52"/>
    <circle cx="1001.28" cy="-.32" r="900.17" stroke-width=".52"/>
    <circle cx="1001.89" cy="-.2" r="909.8" stroke-width=".47"/>
    <circle cx="1002.14" cy=".26" r="920.25" stroke-width=".53"/>
    <circle cx="1002.03" cy=".27" r="930.1" stroke-width=".52"/>
    <circle cx="1001.85" cy=".63" r="940.35" stroke-width=".47"/>
    <circle cx="1002.23" cy="1.13" r="949.78" stroke-width=".53"/>
    <circle cx="1002.78" cy=".6" r="960.24" stroke-width=".48"/>
    <circle cx="1002.4" cy=".44" r="969.84" stroke-width=".54"/>
    <circle cx="1002.39" cy=".31" r="980.28" stroke-width=".51"/>
    <circle cx="1003.13" cy=".14" r="989.82" stroke-width=".53"/>
    <circle cx="1002.48" cy=".29" r="999.66" stroke-width=".54"/>
    <circle cx="1002.81" cy=".77" r="1010.04" stroke-width=".46"/>
    <circle cx="1002.39" cy="1.47" r="1019.84" stroke-width=".46"/>
    <circle cx="1002.38" cy=".78" r="1030.1" stroke-width=".53"/>
    <circle cx="1002.83" cy=".26" r="1040.08" stroke-width=".51"/>
    <circle cx="1002.53" cy=".21" r="1050.17" stroke-width=".51"/>
    <circle cx="1002.15" cy="-.3" r="1060.32" stroke-width=".48"/>
    <circle cx="1002.2" cy="-.7" r="1069.74" stroke-width=".49"/>
    <circle cx="1002.49" cy="-1.37" r="1080.24" stroke-width=".52"/>
    <circle cx="1002.47" cy="-1.55" r="1089.87" stroke-width=".5"/>
    <circle cx="1001.78" cy="-2.26" r="1100.03" stroke-width=".48"/>
    <circle cx="1001.95" cy="-2.5" r="1109.85" stroke-width=".45"/>
  </g>
  <defs>
    <clipPath id="a">
      <path d="M10.14 9.39h1000v500h-1000z"/>
    </clipPath>
    <clipPath id="b">
      <path d="M9.44 10.15h1000v500H9.44z"/>
    </clipPath>
    <clipPath id="c">
      <path d="M10.02 10.16h1000v500h-1000z"/>
    </clipPath>
  </defs>
  <g fill="none" stroke="#ffac2a" clip-path="url(#b)">
    <circle cx="500.49" cy="500.72" r="9.86" stroke-width=".47"/>
    <circle cx="500.19" cy="501.06" r="19.93" stroke-width=".54"/>
    <circle cx="500.31" cy="500.64" r="30.17" stroke-width=".45"/>
    <circle cx="499.6" cy="500.75" r="40" stroke-width=".54"/>
    <circle cx="499.37" cy="500.76" r="50.26" stroke-width=".45"/>
    <circle cx="499.23" cy="501.45" r="59.72" stroke-width=".49"/>
    <circle cx="499.21" cy="501.73" r="70.14" stroke-width=".47"/>
    <circle cx="499.23" cy="502.29" r="79.85" stroke-width=".47"/>
    <circle cx="499.15" cy="502.85" r="90.03" stroke-width=".53"/>
    <circle cx="498.7" cy="502.7" r="99.89" stroke-width=".51"/>
    <circle cx="498.73" cy="501.98" r="109.67" stroke-width=".5"/>
    <circle cx="499.46" cy="501.3" r="120.37" stroke-width=".51"/>
    <circle cx="499.94" cy="501.1" r="130.37" stroke-width=".48"/>
    <circle cx="499.83" cy="501.77" r="140.33" stroke-width=".54"/>
    <circle cx="500.43" cy="501.36" r="150.32" stroke-width=".52"/>
    <circle cx="499.7" cy="500.76" r="159.89" stroke-width=".52"/>
    <circle cx="500.12" cy="501.25" r="169.74" stroke-width=".47"/>
    <circle cx="499.38" cy="501.34" r="179.63" stroke-width=".51"/>
    <circle cx="498.74" cy="501.84" r="189.68" stroke-width=".54"/>
    <circle cx="498.83" cy="501.93" r="200.29" stroke-width=".54"/>
    <circle cx="498.98" cy="501.9" r="209.99" stroke-width=".53"/>
    <circle cx="498.36" cy="501.72" r="220.17" stroke-width=".46"/>
    <circle cx="498.77" cy="500.99" r="230.34" stroke-width=".49"/>
    <circle cx="498.19" cy="500.3" r="239.68" stroke-width=".54"/>
    <circle cx="498.34" cy="499.77" r="249.64" stroke-width=".53"/>
    <circle cx="498.3" cy="500.45" r="260.03" stroke-width=".45"/>
    <circle cx="498.47" cy="500.65" r="270.21" stroke-width=".48"/>
    <circle cx="498.44" cy="501.13" r="280.3" stroke-width=".45"/>
    <circle cx="498.07" cy="501.28" r="290.15" stroke-width=".47"/>
    <circle cx="498.3" cy="500.73" r="299.79" stroke-width=".54"/>
    <circle cx="497.83" cy="500.94" r="309.65" stroke-width=".46"/>
    <circle cx="498.32" cy="500.26" r="319.98" stroke-width=".46"/>
    <circle cx="497.81" cy="500.21" r="330.12" stroke-width=".5"/>
    <circle cx="497.22" cy="500.26" r="339.68" stroke-width=".51"/>
    <circle cx="497.62" cy="500.21" r="349.88" stroke-width=".48"/>
    <circle cx="497.12" cy="500.56" r="360.03" stroke-width=".48"/>
    <circle cx="496.68" cy="501.14" r="369.96" stroke-width=".52"/>
    <circle cx="496.44" cy="501.14" r="379.9" stroke-width=".5"/>
    <circle cx="495.8" cy="500.91" r="390.04" stroke-width=".5"/>
    <circle cx="495.68" cy="500.38" r="400.01" stroke-width=".45"/>
    <circle cx="495.34" cy="500.69" r="410.29" stroke-width=".49"/>
    <circle cx="495.66" cy="500.02" r="419.78" stroke-width=".46"/>
    <circle cx="495.46" cy="499.53" r="430.37" stroke-width=".47"/>
    <circle cx="495.46" cy="499.53" r="439.76" stroke-width=".5"/>
    <circle cx="495.19" cy="499.36" r="450.12" stroke-width=".47"/>
    <circle cx="495.35" cy="499.04" r="460.1" stroke-width=".5"/>
    <circle cx="495.64" cy="499.03" r="469.71" stroke-width=".53"/>
    <circle cx="495.86" cy="499.47" r="480.2" stroke-width=".46"/>
    <circle cx="495.42" cy="499.35" r="490.06" stroke-width=".54"/>
    <circle cx="495.1" cy="499.21" r="500.19" stroke-width=".48"/>
    <circle cx="494.41" cy="498.71" r="509.91" stroke-width=".54"/>
    <circle cx="495.15" cy="498.81" r="520.15" stroke-width=".45"/>
    <circle cx="494.98" cy="498.43" r="530.22" stroke-width=".45"/>
    <circle cx="494.81" cy="497.77" r="539.64" stroke-width=".53"/>
    <circle cx="494.74" cy="497.32" r="550.16" stroke-width=".53"/>
    <circle cx="494.02" cy="497.44" r="559.74" stroke-width=".52"/>
    <circle cx="494.13" cy="496.8" r="570.31" stroke-width=".52"/>
    <circle cx="493.66" cy="497.02" r="579.98" stroke-width=".51"/>
    <circle cx="493.91" cy="497.33" r="589.77" stroke-width=".53"/>
    <circle cx="494.19" cy="496.69" r="600.06" stroke-width=".47"/>
    <circle cx="494" cy="496.92" r="610.13" stroke-width=".53"/>
    <circle cx="493.74" cy="496.46" r="620.3" stroke-width=".52"/>
    <circle cx="493.64" cy="496.7" r="630.18" stroke-width=".52"/>
    <circle cx="493.28" cy="496.13" r="640.28" stroke-width=".49"/>
    <circle cx="492.87" cy="496.48" r="649.84" stroke-width=".52"/>
    <circle cx="493.05" cy="497.12" r="660.3" stroke-width=".53"/>
    <circle cx="493.77" cy="497.45" r="670.03" stroke-width=".51"/>
    <circle cx="493.65" cy="497.96" r="680.25" stroke-width=".49"/>
    <circle cx="493.08" cy="497.44" r="689.67" stroke-width=".48"/>
    <circle cx="493.02" cy="498.13" r="699.95" stroke-width=".51"/>
    <circle cx="492.96" cy="498.24" r="709.94" stroke-width=".54"/>
    <circle cx="493.62" cy="498.19" r="719.65" stroke-width=".49"/>
    <circle cx="493.97" cy="498.84" r="729.98" stroke-width=".53"/>
    <circle cx="493.89" cy="499.37" r="739.81" stroke-width=".5"/>
    <circle cx="493.74" cy="498.88" r="749.82" stroke-width=".53"/>
    <circle cx="493.3" cy="498.28" r="759.86" stroke-width=".54"/>
    <circle cx="493.82" cy="498.3" r="769.81" stroke-width=".51"/>
    <circle cx="493.89" cy="498.31" r="779.76" stroke-width=".51"/>
    <circle cx="493.79" cy="497.89" r="789.75" stroke-width=".52"/>
    <circle cx="494.38" cy="497.33" r="800.3" stroke-width=".49"/>
    <circle cx="494.61" cy="497.12" r="810.28" stroke-width=".48"/>
    <circle cx="494.76" cy="497.34" r="820.18" stroke-width=".49"/>
    <circle cx="495.24" cy="496.87" r="829.82" stroke-width=".47"/>
    <circle cx="495.33" cy="496.62" r="839.99" stroke-width=".47"/>
    <circle cx="495.5" cy="497.03" r="850.33" stroke-width=".45"/>
    <circle cx="495.18" cy="496.33" r="860.16" stroke-width=".49"/>
    <circle cx="495.26" cy="496.85" r="870.29" stroke-width=".54"/>
    <circle cx="495.34" cy="496.5" r="879.96" stroke-width=".47"/>
    <circle cx="495.51" cy="496.35" r="890.11" stroke-width=".51"/>
    <circle cx="495.38" cy="496.47" r="899.7" stroke-width=".48"/>
    <circle cx="495.83" cy="497.22" r="910.18" stroke-width=".47"/>
    <circle cx="495.8" cy="497.08" r="920.25" stroke-width=".48"/>
    <circle cx="495.8" cy="496.75" r="930.19" stroke-width=".54"/>
    <circle cx="495.41" cy="496.11" r="939.64" stroke-width=".54"/>
    <circle cx="494.79" cy="496.01" r="950.26" stroke-width=".51"/>
    <circle cx="494.29" cy="495.53" r="960.02" stroke-width=".51"/>
    <circle cx="493.73" cy="494.98" r="970.34" stroke-width=".46"/>
    <circle cx="493.67" cy="495.6" r="979.69" stroke-width=".47"/>
    <circle cx="494.02" cy="496.32" r="990.28" stroke-width=".54"/>
    <circle cx="493.58" cy="495.64" r="999.86" stroke-width=".52"/>
    <circle cx="493.81" cy="495.94" r="1010.02" stroke-width=".55"/>
    <circle cx="493.47" cy="496.56" r="1020.08" stroke-width=".48"/>
    <circle cx="493.58" cy="496.05" r="1030.11" stroke-width=".45"/>
    <circle cx="492.99" cy="496.46" r="1039.66" stroke-width=".49"/>
    <circle cx="492.9" cy="496.87" r="1049.9" stroke-width=".49"/>
    <circle cx="493.29" cy="497.02" r="1060.2" stroke-width=".5"/>
    <circle cx="493.3" cy="497.41" r="1069.65" stroke-width=".48"/>
    <circle cx="492.87" cy="497.14" r="1079.72" stroke-width=".46"/>
    <circle cx="493.44" cy="496.77" r="1089.65" stroke-width=".46"/>
    <circle cx="493.71" cy="496.18" r="1099.81" stroke-width=".53"/>
    <circle cx="492.97" cy="496.33" r="1110.23" stroke-width=".47"/>
    <circle cx="492.95" cy="496.41" r="1120.31" stroke-width=".54"/>
    <circle cx="493.57" cy="495.99" r="1130.01" stroke-width=".51"/>
    <circle cx="493.28" cy="496.2" r="1140.18" stroke-width=".51"/>
    <circle cx="493.41" cy="496.67" r="1149.99" stroke-width=".47"/>
    <circle cx="493.61" cy="496.48" r="1159.98" stroke-width=".48"/>
    <circle cx="493.37" cy="496.82" r="1170.18" stroke-width=".52"/>
    <circle cx="493.72" cy="496.84" r="1179.64" stroke-width=".51"/>
    <circle cx="493.74" cy="497.34" r="1189.8" stroke-width=".52"/>
    <circle cx="493.85" cy="497.53" r="1200.01" stroke-width=".49"/>
    <circle cx="493.99" cy="497.97" r="1210.32" stroke-width=".46"/>
    <circle cx="493.45" cy="497.55" r="1219.81" stroke-width=".46"/>
    <circle cx="493.86" cy="496.94" r="1229.76" stroke-width=".55"/>
    <circle cx="494.5" cy="497.11" r="1240.26" stroke-width=".51"/>
    <circle cx="493.86" cy="497.03" r="1250.22" stroke-width=".53"/>
    <circle cx="494.15" cy="497.34" r="1259.7" stroke-width=".53"/>
    <circle cx="493.89" cy="496.9" r="1270.05" stroke-width=".53"/>
    <circle cx="494.53" cy="497.58" r="1280.22" stroke-width=".53"/>
    <circle cx="494.01" cy="497.61" r="1289.68" stroke-width=".51"/>
    <circle cx="493.4" cy="497.92" r="1299.64" stroke-width=".47"/>
    <circle cx="493" cy="498.22" r="1309.8" stroke-width=".52"/>
    <circle cx="493.41" cy="498.78" r="1319.94" stroke-width=".5"/>
    <circle cx="493.61" cy="498.08" r="1329.96" stroke-width=".49"/>
    <circle cx="494.3" cy="497.34" r="1340.35" stroke-width=".51"/>
    <circle cx="494.41" cy="496.95" r="1350.21" stroke-width=".45"/>
    <circle cx="495.09" cy="496.93" r="1359.77" stroke-width=".53"/>
    <circle cx="495.08" cy="497.12" r="1370.26" stroke-width=".52"/>
    <circle cx="495.73" cy="496.49" r="1380.06" stroke-width=".52"/>
    <circle cx="495.77" cy="496.91" r="1389.96" stroke-width=".46"/>
    <circle cx="495.51" cy="497.33" r="1399.73" stroke-width=".47"/>
    <circle cx="496.15" cy="497.85" r="1409.73" stroke-width=".52"/>
  </g>
  <g fill="none" stroke="#f4b3c3" clip-path="url(#c)">
    <circle cx="1000.44" cy="250.16" r="10" stroke-width=".55"/>
    <circle cx="1000.12" cy="250.57" r="20.19" stroke-width=".47"/>
    <circle cx="999.57" cy="250.41" r="30.27" stroke-width=".51"/>
    <circle cx="999.46" cy="250.71" r="39.92" stroke-width=".5"/>
    <circle cx="999.4" cy="250.86" r="50.12" stroke-width=".55"/>
    <circle cx="999.57" cy="250.79" r="60.36" stroke-width=".49"/>
    <circle cx="999.06" cy="250.79" r="70.06" stroke-width=".49"/>
    <circle cx="999.44" cy="251.04" r="80.21" stroke-width=".54"/>
    <circle cx="998.9" cy="250.76" r="89.96" stroke-width=".53"/>
    <circle cx="998.69" cy="250.56" r="99.87" stroke-width=".51"/>
    <circle cx="998.93" cy="250.61" r="110.08" stroke-width=".49"/>
    <circle cx="999.67" cy="250.49" r="119.99" stroke-width=".51"/>
    <circle cx="999.32" cy="250.33" r="130.03" stroke-width=".51"/>
    <circle cx="999.26" cy="250.72" r="139.95" stroke-width=".48"/>
    <circle cx="999.2" cy="251.24" r="149.68" stroke-width=".48"/>
    <circle cx="998.96" cy="251.88" r="160.09" stroke-width=".46"/>
    <circle cx="998.26" cy="252.14" r="169.97" stroke-width=".49"/>
    <circle cx="998.73" cy="252.42" r="179.85" stroke-width=".46"/>
    <circle cx="999.26" cy="251.85" r="189.92" stroke-width=".52"/>
    <circle cx="999.18" cy="251.95" r="200.26" stroke-width=".47"/>
    <circle cx="999.43" cy="251.7" r="210.12" stroke-width=".48"/>
    <circle cx="998.91" cy="251.8" r="219.87" stroke-width=".52"/>
    <circle cx="999.02" cy="251.06" r="230.18" stroke-width=".52"/>
    <circle cx="998.32" cy="251.57" r="240.3" stroke-width=".49"/>
    <circle cx="997.93" cy="252" r="249.78" stroke-width=".52"/>
    <circle cx="998.04" cy="251.93" r="259.82" stroke-width=".53"/>
    <circle cx="998.29" cy="251.87" r="269.74" stroke-width=".52"/>
    <circle cx="998.79" cy="252.41" r="279.66" stroke-width=".45"/>
    <circle cx="998.75" cy="251.98" r="289.83" stroke-width=".48"/>
    <circle cx="998.01" cy="251.79" r="300.24" stroke-width=".53"/>
    <circle cx="998.1" cy="252.23" r="310.15" stroke-width=".5"/>
    <circle cx="998.75" cy="252.04" r="320.09" stroke-width=".46"/>
    <circle cx="998.16" cy="251.62" r="330.16" stroke-width=".52"/>
    <circle cx="998.31" cy="251.03" r="340.21" stroke-width=".48"/>
    <circle cx="997.67" cy="250.76" r="349.7" stroke-width=".52"/>
    <circle cx="997.04" cy="250.42" r="360.09" stroke-width=".48"/>
    <circle cx="996.9" cy="249.83" r="370.13" stroke-width=".5"/>
    <circle cx="996.46" cy="249.21" r="379.94" stroke-width=".52"/>
    <circle cx="996.65" cy="249.18" r="389.94" stroke-width=".5"/>
    <circle cx="997.01" cy="249.71" r="400.22" stroke-width=".49"/>
    <circle cx="997.51" cy="249.84" r="410.2" stroke-width=".5"/>
    <circle cx="997.38" cy="249.39" r="420.1" stroke-width=".45"/>
    <circle cx="996.65" cy="249.27" r="429.83" stroke-width=".51"/>
    <circle cx="996.54" cy="249.27" r="440.14" stroke-width=".52"/>
    <circle cx="997.28" cy="249.73" r="449.82" stroke-width=".47"/>
    <circle cx="996.94" cy="250.41" r="460.37" stroke-width=".54"/>
    <circle cx="997.29" cy="250.93" r="469.75" stroke-width=".51"/>
    <circle cx="997.61" cy="251.18" r="480.26" stroke-width=".47"/>
    <circle cx="997.14" cy="250.76" r="490.13" stroke-width=".5"/>
    <circle cx="997.01" cy="250.86" r="499.81" stroke-width=".46"/>
    <circle cx="996.8" cy="251.09" r="509.81" stroke-width=".5"/>
    <circle cx="996.53" cy="251.82" r="519.77" stroke-width=".47"/>
    <circle cx="996.77" cy="251.38" r="530.31" stroke-width=".52"/>
    <circle cx="996.27" cy="250.88" r="540" stroke-width=".47"/>
    <circle cx="996.55" cy="250.91" r="549.85" stroke-width=".52"/>
    <circle cx="996.05" cy="250.75" r="559.73" stroke-width=".49"/>
    <circle cx="995.72" cy="250.39" r="570.07" stroke-width=".49"/>
    <circle cx="996.38" cy="250.52" r="579.84" stroke-width=".52"/>
    <circle cx="996.08" cy="250.24" r="590.35" stroke-width=".53"/>
    <circle cx="996.34" cy="250.98" r="599.81" stroke-width=".53"/>
    <circle cx="996.12" cy="251.18" r="610.02" stroke-width=".45"/>
    <circle cx="995.56" cy="251.93" r="619.95" stroke-width=".54"/>
    <circle cx="996.27" cy="251.81" r="629.79" stroke-width=".51"/>
    <circle cx="995.83" cy="251.77" r="639.8" stroke-width=".51"/>
    <circle cx="995.68" cy="251.84" r="649.94" stroke-width=".51"/>
    <circle cx="995.82" cy="252.08" r="659.9" stroke-width=".52"/>
    <circle cx="995.75" cy="252.56" r="670.18" stroke-width=".53"/>
    <circle cx="995.93" cy="253.11" r="679.94" stroke-width=".54"/>
    <circle cx="995.84" cy="253.68" r="689.79" stroke-width=".48"/>
    <circle cx="996.44" cy="254.19" r="699.93" stroke-width=".47"/>
    <circle cx="996.65" cy="254.04" r="709.84" stroke-width=".48"/>
    <circle cx="997.31" cy="253.62" r="720.29" stroke-width=".47"/>
    <circle cx="998.03" cy="253.63" r="730.11" stroke-width=".5"/>
    <circle cx="997.77" cy="254.04" r="739.77" stroke-width=".54"/>
    <circle cx="997.19" cy="254.49" r="749.87" stroke-width=".55"/>
    <circle cx="997.33" cy="255.13" r="759.8" stroke-width=".49"/>
    <circle cx="996.87" cy="255.02" r="770.04" stroke-width=".46"/>
    <circle cx="996.18" cy="254.65" r="780.32" stroke-width=".47"/>
    <circle cx="996.42" cy="255.23" r="789.72" stroke-width=".48"/>
    <circle cx="996.26" cy="254.68" r="799.64" stroke-width=".52"/>
    <circle cx="996.72" cy="254.33" r="809.95" stroke-width=".53"/>
    <circle cx="996.85" cy="254.58" r="819.73" stroke-width=".47"/>
    <circle cx="997.42" cy="254.62" r="829.73" stroke-width=".49"/>
    <circle cx="997.5" cy="254.69" r="840.25" stroke-width=".47"/>
    <circle cx="997" cy="255.26" r="849.76" stroke-width=".47"/>
    <circle cx="997.68" cy="254.97" r="859.71" stroke-width=".49"/>
    <circle cx="997.69" cy="254.63" r="869.97" stroke-width=".49"/>
    <circle cx="997.86" cy="255.28" r="879.85" stroke-width=".51"/>
    <circle cx="997.57" cy="254.55" r="890.1" stroke-width=".48"/>
    <circle cx="997.47" cy="255.29" r="899.78" stroke-width=".55"/>
    <circle cx="998.02" cy="255.82" r="909.82" stroke-width=".52"/>
    <circle cx="997.53" cy="256.25" r="920.11" stroke-width=".49"/>
    <circle cx="997.1" cy="255.72" r="929.71" stroke-width=".54"/>
    <circle cx="996.86" cy="256.05" r="940.31" stroke-width=".48"/>
    <circle cx="996.38" cy="256.13" r="950.16" stroke-width=".46"/>
    <circle cx="996.9" cy="255.88" r="959.99" stroke-width=".45"/>
    <circle cx="996.77" cy="255.3" r="969.75" stroke-width=".47"/>
    <circle cx="997.37" cy="255.4" r="979.87" stroke-width=".53"/>
    <circle cx="997" cy="255.08" r="989.81" stroke-width=".47"/>
    <circle cx="996.41" cy="254.8" r="999.77" stroke-width=".46"/>
    <circle cx="997.02" cy="254.97" r="1010.24" stroke-width=".51"/>
    <circle cx="996.48" cy="254.64" r="1019.74" stroke-width=".55"/>
    <circle cx="997.08" cy="254.84" r="1030.15" stroke-width=".52"/>
    <circle cx="996.77" cy="255.31" r="1040.33" stroke-width=".48"/>
    <circle cx="997.06" cy="255.87" r="1049.87" stroke-width=".47"/>
    <circle cx="996.37" cy="255.15" r="1059.9" stroke-width=".46"/>
    <circle cx="996.56" cy="254.49" r="1070.33" stroke-width=".45"/>
    <circle cx="996.54" cy="254.53" r="1080.26" stroke-width=".52"/>
    <circle cx="997.26" cy="254.61" r="1089.71" stroke-width=".46"/>
    <circle cx="997.47" cy="254.28" r="1100.29" stroke-width=".53"/>
    <circle cx="997.76" cy="253.82" r="1110.23" stroke-width=".55"/>
    <circle cx="997.52" cy="253.64" r="1120.32" stroke-width=".5"/>
    <circle cx="997.37" cy="253.65" r="1130.05" stroke-width=".52"/>
    <circle cx="997.51" cy="253.7" r="1139.93" stroke-width=".48"/>
    <circle cx="997.93" cy="253.66" r="1149.81" stroke-width=".52"/>
    <circle cx="997.39" cy="253.14" r="1159.89" stroke-width=".52"/>
    <circle cx="997.51" cy="253" r="1170.27" stroke-width=".53"/>
    <circle cx="997.58" cy="253.1" r="1180.02" stroke-width=".46"/>
    <circle cx="998.16" cy="253.39" r="1190.13" stroke-width=".48"/>
    <circle cx="997.98" cy="252.84" r="1199.66" stroke-width=".46"/>
    <circle cx="997.41" cy="252.74" r="1210.05" stroke-width=".55"/>
    <circle cx="997.79" cy="253.44" r="1220.12" stroke-width=".53"/>
    <circle cx="998.46" cy="253.89" r="1230" stroke-width=".51"/>
    <circle cx="998.42" cy="253.9" r="1239.73" stroke-width=".47"/>
    <circle cx="998.47" cy="253.77" r="1249.76" stroke-width=".53"/>
    <circle cx="998.55" cy="253.44" r="1260.34" stroke-width=".46"/>
    <circle cx="998.36" cy="253.86" r="1269.81" stroke-width=".46"/>
    <circle cx="998.75" cy="253.7" r="1279.94" stroke-width=".49"/>
    <circle cx="999.31" cy="253.12" r="1289.89" stroke-width=".55"/>
    <circle cx="999.5" cy="252.45" r="1300.07" stroke-width=".47"/>
    <circle cx="1000.01" cy="252.51" r="1309.77" stroke-width=".48"/>
    <circle cx="999.62" cy="253.24" r="1320.33" stroke-width=".45"/>
    <circle cx="999.06" cy="253.73" r="1330.29" stroke-width=".47"/>
    <circle cx="999.7" cy="254.44" r="1339.89" stroke-width=".53"/>
    <circle cx="999.89" cy="253.94" r="1350.03" stroke-width=".46"/>
    <circle cx="1000.17" cy="253.39" r="1359.66" stroke-width=".46"/>
    <circle cx="1000.56" cy="253.26" r="1369.87" stroke-width=".52"/>
    <circle cx="1001.28" cy="253.96" r="1380.31" stroke-width=".47"/>
    <circle cx="1001" cy="254.05" r="1389.72" stroke-width=".46"/>
    <circle cx="1001.13" cy="254.49" r="1399.92" stroke-width=".47"/>
    <circle cx="1001.51" cy="254.56" r="1409.77" stroke-width=".51"/>
  </g>
</svg>
