<svg xmlns="http://www.w3.org/2000/svg" width="1000" height="500">
  <g fill="none" stroke="#fff472" clip-path="url(#a)">
    <circle cx="499.33" cy="-.02" r="10.11" stroke-width=".49"/>
    <circle cx="499.08" cy=".73" r="20.22" stroke-width=".55"/>
    <circle cx="499.03" cy=".27" r="29.97" stroke-width=".47"/>
    <circle cx="498.67" cy=".7" r="40.09" stroke-width=".51"/>
    <circle cx="498.43" cy=".02" r="49.77" stroke-width=".47"/>
    <circle cx="498.67" cy="-.65" r="59.66" stroke-width=".51"/>
    <circle cx="498" cy="-.93" r="70" stroke-width=".52"/>
    <circle cx="498.15" cy="-.19" r="80.35" stroke-width=".49"/>
    <circle cx="497.68" cy=".42" r="90.05" stroke-width=".52"/>
    <circle cx="497.56" cy="1.13" r="100.11" stroke-width=".54"/>
    <circle cx="497.91" cy="1.28" r="109.79" stroke-width=".5"/>
    <circle cx="497.33" cy="1.49" r="119.93" stroke-width=".48"/>
    <circle cx="497.74" cy="1.12" r="129.79" stroke-width=".46"/>
    <circle cx="498.46" cy="1.03" r="139.87" stroke-width=".47"/>
    <circle cx="497.72" cy="1.7" r="150.21" stroke-width=".46"/>
    <circle cx="498.32" cy="1.59" r="159.91" stroke-width=".46"/>
    <circle cx="498.53" cy="1.82" r="169.79" stroke-width=".5"/>
    <circle cx="498.77" cy="1.95" r="180.15" stroke-width=".52"/>
    <circle cx="498.58" cy="2.56" r="189.84" stroke-width=".53"/>
    <circle cx="499" cy="3.12" r="200.24" stroke-width=".5"/>
    <circle cx="498.91" cy="2.62" r="210.08" stroke-width=".49"/>
    <circle cx="498.48" cy="3.19" r="219.72" stroke-width=".51"/>
    <circle cx="498.01" cy="3.01" r="229.69" stroke-width=".48"/>
    <circle cx="498.06" cy="2.32" r="240.18" stroke-width=".54"/>
    <circle cx="498.04" cy="2.35" r="250.09" stroke-width=".45"/>
    <circle cx="498.42" cy="1.99" r="260.36" stroke-width=".5"/>
    <circle cx="498.06" cy="1.34" r="269.63" stroke-width=".52"/>
    <circle cx="497.77" cy="1.97" r="279.7" stroke-width=".54"/>
    <circle cx="498.34" cy="2.67" r="290.19" stroke-width=".46"/>
    <circle cx="498.68" cy="2.77" r="299.95" stroke-width=".54"/>
    <circle cx="498.99" cy="2.22" r="309.96" stroke-width=".45"/>
    <circle cx="498.79" cy="1.63" r="320.24" stroke-width=".51"/>
    <circle cx="498.38" cy="1.62" r="330.05" stroke-width=".51"/>
    <circle cx="498.94" cy="1.25" r="340.18" stroke-width=".47"/>
    <circle cx="499.09" cy=".91" r="350.07" stroke-width=".46"/>
    <circle cx="499.76" cy="1.12" r="360.07" stroke-width=".47"/>
    <circle cx="499.27" cy=".69" r="369.8" stroke-width=".49"/>
    <circle cx="499.61" cy="1.25" r="379.92" stroke-width=".52"/>
    <circle cx="499.66" cy="1.33" r="389.75" stroke-width=".51"/>
    <circle cx="499" cy="1.03" r="400.29" stroke-width=".46"/>
    <circle cx="499.48" cy=".47" r="410.16" stroke-width=".47"/>
    <circle cx="499.51" cy=".25" r="420.25" stroke-width=".46"/>
    <circle cx="499.01" cy="-.11" r="430.17" stroke-width=".5"/>
    <circle cx="499.2" cy="-.25" r="440.12" stroke-width=".55"/>
    <circle cx="499.94" cy="-.1" r="450.11" stroke-width=".49"/>
    <circle cx="499.71" cy="-.58" r="459.98" stroke-width=".48"/>
    <circle cx="499.86" cy="-.87" r="470" stroke-width=".48"/>
    <circle cx="499.14" cy="-1.43" r="479.98" stroke-width=".52"/>
    <circle cx="499.04" cy="-1.08" r="489.78" stroke-width=".53"/>
    <circle cx="498.73" cy="-.53" r="499.95" stroke-width=".47"/>
    <circle cx="498.68" cy="-.87" r="509.81" stroke-width=".53"/>
    <circle cx="497.99" cy="-.91" r="520.28" stroke-width=".48"/>
    <circle cx="497.28" cy="-1.35" r="529.94" stroke-width=".53"/>
    <circle cx="497.25" cy="-.74" r="539.76" stroke-width=".53"/>
    <circle cx="496.86" cy="-1.47" r="549.68" stroke-width=".51"/>
    <circle cx="496.48" cy="-.96" r="560.21" stroke-width=".52"/>
    <circle cx="496" cy="-1.56" r="569.98" stroke-width=".53"/>
    <circle cx="496.16" cy="-1.45" r="580.05" stroke-width=".52"/>
    <circle cx="496.62" cy="-1.53" r="590.24" stroke-width=".54"/>
    <circle cx="497.07" cy="-1.48" r="600.33" stroke-width=".51"/>
    <circle cx="496.97" cy="-1.51" r="610.03" stroke-width=".5"/>
    <circle cx="496.82" cy="-.81" r="619.64" stroke-width=".51"/>
    <circle cx="496.82" cy="-.91" r="629.69" stroke-width=".53"/>
    <circle cx="496.79" cy="-.9" r="640.17" stroke-width=".51"/>
    <circle cx="497.48" cy="-.47" r="650.25" stroke-width=".51"/>
    <circle cx="497.52" cy="-.87" r="659.83" stroke-width=".51"/>
    <circle cx="497.7" cy="-1.15" r="670.2" stroke-width=".49"/>
    <circle cx="497.03" cy="-1.07" r="679.94" stroke-width=".49"/>
    <circle cx="496.3" cy="-.75" r="689.78" stroke-width=".48"/>
    <circle cx="496.16" cy="-.88" r="699.91" stroke-width=".52"/>
    <circle cx="496.1" cy="-.38" r="710.1" stroke-width=".52"/>
    <circle cx="495.88" cy="-.87" r="719.96" stroke-width=".52"/>
    <circle cx="496.59" cy="-1.12" r="729.67" stroke-width=".46"/>
    <circle cx="497.33" cy="-.5" r="739.69" stroke-width=".54"/>
    <circle cx="498.05" cy="-1.04" r="749.77" stroke-width=".46"/>
    <circle cx="498.79" cy="-.91" r="759.88" stroke-width=".54"/>
    <circle cx="499.52" cy="-1.05" r="770.37" stroke-width=".48"/>
    <circle cx="499.32" cy="-1.39" r="779.94" stroke-width=".48"/>
    <circle cx="499.77" cy="-1.13" r="789.91" stroke-width=".55"/>
    <circle cx="500.26" cy="-1.35" r="799.79" stroke-width=".55"/>
    <circle cx="499.9" cy="-.74" r="809.72" stroke-width=".51"/>
    <circle cx="499.79" cy="-.01" r="820.24" stroke-width=".45"/>
    <circle cx="499.3" cy=".2" r="830.29" stroke-width=".5"/>
    <circle cx="499.39" cy=".37" r="840.33" stroke-width=".48"/>
    <circle cx="498.87" cy=".97" r="850.07" stroke-width=".54"/>
    <circle cx="498.47" cy="1.65" r="859.88" stroke-width=".53"/>
    <circle cx="498.91" cy="1.54" r="869.69" stroke-width=".46"/>
    <circle cx="499.5" cy=".97" r="880.13" stroke-width=".46"/>
    <circle cx="500.24" cy="1.24" r="889.73" stroke-width=".49"/>
    <circle cx="500.25" cy="1.87" r="899.67" stroke-width=".49"/>
    <circle cx="499.62" cy="2.32" r="910.19" stroke-width=".51"/>
    <circle cx="499.14" cy="2.55" r="920.14" stroke-width=".51"/>
    <circle cx="499.49" cy="2.78" r="930.03" stroke-width=".47"/>
    <circle cx="498.85" cy="2.26" r="940.17" stroke-width=".46"/>
    <circle cx="498.69" cy="2.07" r="950.09" stroke-width=".52"/>
    <circle cx="498.9" cy="1.39" r="960.25" stroke-width=".45"/>
    <circle cx="498.53" cy="1.95" r="970.18" stroke-width=".5"/>
    <circle cx="497.81" cy="2.08" r="980.25" stroke-width=".54"/>
    <circle cx="498.39" cy="2.02" r="990.21" stroke-width=".49"/>
    <circle cx="498.61" cy="1.65" r="1000.18" stroke-width=".54"/>
    <circle cx="498.43" cy="1.74" r="1009.68" stroke-width=".45"/>
    <circle cx="498.61" cy="1.88" r="1019.85" stroke-width=".46"/>
    <circle cx="498.98" cy="2.5" r="1030.12" stroke-width=".47"/>
    <circle cx="498.72" cy="1.8" r="1040.03" stroke-width=".53"/>
    <circle cx="498.79" cy="1.73" r="1049.98" stroke-width=".53"/>
    <circle cx="498.63" cy="1.02" r="1059.84" stroke-width=".55"/>
    <circle cx="498.68" cy="1.15" r="1069.93" stroke-width=".45"/>
    <circle cx="499.04" cy="1.35" r="1080.02" stroke-width=".52"/>
    <circle cx="498.88" cy=".98" r="1090.1" stroke-width=".52"/>
    <circle cx="499.23" cy=".66" r="1100.32" stroke-width=".46"/>
    <circle cx="499.43" cy=".41" r="1109.79" stroke-width=".51"/>
    <circle cx="500.17" cy=".16" r="1119.81" stroke-width=".53"/>
    <circle cx="500.74" cy="-.14" r="1130.28" stroke-width=".46"/>
    <circle cx="500.95" cy="-.63" r="1139.73" stroke-width=".49"/>
    <circle cx="500.51" cy="-.74" r="1149.74" stroke-width=".47"/>
    <circle cx="501.19" cy="-.4" r="1159.94" stroke-width=".49"/>
    <circle cx="500.6" cy="-.14" r="1170.25" stroke-width=".51"/>
    <circle cx="500.46" cy="-.23" r="1180.06" stroke-width=".55"/>
    <circle cx="501.21" cy="-.68" r="1189.79" stroke-width=".54"/>
    <circle cx="501.77" cy="-1.31" r="1200.06" stroke-width=".47"/>
    <circle cx="501.37" cy="-1" r="1209.92" stroke-width=".46"/>
    <circle cx="501.16" cy="-1.2" r="1220.23" stroke-width=".47"/>
    <circle cx="501.75" cy="-1.59" r="1229.68" stroke-width=".53"/>
    <circle cx="501.95" cy="-1.04" r="1239.93" stroke-width=".51"/>
    <circle cx="501.29" cy="-1.71" r="1249.7" stroke-width=".54"/>
    <circle cx="500.82" cy="-1.62" r="1260.18" stroke-width=".49"/>
    <circle cx="500.1" cy="-1.42" r="1269.9" stroke-width=".51"/>
    <circle cx="500.73" cy="-1.86" r="1280.36" stroke-width=".54"/>
    <circle cx="501.4" cy="-2.52" r="1289.82" stroke-width=".55"/>
    <circle cx="502.05" cy="-2.44" r="1300.16" stroke-width=".54"/>
    <circle cx="502.33" cy="-2.97" r="1310.32" stroke-width=".46"/>
    <circle cx="502.72" cy="-3.35" r="1320.37" stroke-width=".46"/>
    <circle cx="503.21" cy="-2.86" r="1329.78" stroke-width=".48"/>
    <circle cx="503.25" cy="-2.45" r="1340.31" stroke-width=".46"/>
    <circle cx="502.92" cy="-3.05" r="1349.71" stroke-width=".48"/>
    <circle cx="502.61" cy="-3.51" r="1359.71" stroke-width=".48"/>
    <circle cx="502.77" cy="-3.2" r="1370.04" stroke-width=".53"/>
    <circle cx="502.78" cy="-2.46" r="1380.17" stroke-width=".53"/>
    <circle cx="502.34" cy="-2.27" r="1390.35" stroke-width=".53"/>
    <circle cx="502.31" cy="-2.99" r="1400.27" stroke-width=".52"/>
    <circle cx="501.64" cy="-3.52" r="1409.7" stroke-width=".46"/>
  </g>
  <defs>
    <clipPath id="a">
      <path d="M10.65 10.12h1000v500h-1000z"/>
    </clipPath>
    <clipPath id="b">
      <path d="M9.91 10.01h1000v500H9.91z"/>
    </clipPath>
  </defs>
  <g fill="none" stroke="#f4b3c3" clip-path="url(#b)">
    <circle cx="999.54" cy="249.7" r="9.98" stroke-width=".53"/>
    <circle cx="1000.02" cy="249.41" r="19.93" stroke-width=".53"/>
    <circle cx="999.72" cy="249.01" r="29.98" stroke-width=".52"/>
    <circle cx="998.98" cy="249.27" r="39.98" stroke-width=".55"/>
    <circle cx="999.24" cy="249.7" r="50.24" stroke-width=".52"/>
    <circle cx="999.34" cy="249.17" r="59.83" stroke-width=".5"/>
    <circle cx="998.75" cy="249.01" r="70.13" stroke-width=".51"/>
    <circle cx="998.23" cy="248.66" r="79.73" stroke-width=".5"/>
    <circle cx="998.59" cy="249.24" r="90.28" stroke-width=".46"/>
    <circle cx="998.42" cy="248.82" r="99.64" stroke-width=".52"/>
    <circle cx="997.68" cy="248.45" r="110.16" stroke-width=".49"/>
    <circle cx="997.93" cy="248.43" r="119.78" stroke-width=".46"/>
    <circle cx="998.51" cy="248.2" r="129.8" stroke-width=".45"/>
    <circle cx="998.72" cy="248.15" r="140.33" stroke-width=".46"/>
    <circle cx="998.85" cy="248.56" r="149.83" stroke-width=".49"/>
    <circle cx="998.97" cy="248.22" r="160.11" stroke-width=".54"/>
    <circle cx="998.63" cy="248.14" r="169.94" stroke-width=".5"/>
    <circle cx="998.87" cy="248.22" r="179.85" stroke-width=".46"/>
    <circle cx="998.94" cy="248.21" r="190.16" stroke-width=".51"/>
    <circle cx="999.55" cy="248.38" r="199.89" stroke-width=".47"/>
    <circle cx="999.6" cy="249" r="210.32" stroke-width=".48"/>
    <circle cx="999.58" cy="249.21" r="220.31" stroke-width=".49"/>
    <circle cx="999.7" cy="249" r="229.66" stroke-width=".48"/>
    <circle cx="1000.26" cy="248.89" r="239.9" stroke-width=".49"/>
    <circle cx="999.85" cy="249.62" r="249.84" stroke-width=".47"/>
    <circle cx="999.7" cy="249.34" r="260.11" stroke-width=".52"/>
    <circle cx="999.58" cy="250" r="270.35" stroke-width=".53"/>
    <circle cx="1000.3" cy="249.98" r="279.96" stroke-width=".48"/>
    <circle cx="1000.97" cy="249.87" r="289.76" stroke-width=".55"/>
    <circle cx="1001.21" cy="249.69" r="300.04" stroke-width=".53"/>
    <circle cx="1000.61" cy="249.32" r="310.16" stroke-width=".53"/>
    <circle cx="1000.61" cy="248.62" r="319.86" stroke-width=".47"/>
    <circle cx="1000.22" cy="248.94" r="329.9" stroke-width=".47"/>
    <circle cx="999.55" cy="249.07" r="340.1" stroke-width=".48"/>
    <circle cx="999.35" cy="249.32" r="349.99" stroke-width=".54"/>
    <circle cx="999.32" cy="250.05" r="360.18" stroke-width=".5"/>
    <circle cx="999.62" cy="250.41" r="369.86" stroke-width=".52"/>
    <circle cx="999.73" cy="250.47" r="379.99" stroke-width=".47"/>
    <circle cx="999.18" cy="250.24" r="389.77" stroke-width=".49"/>
    <circle cx="998.5" cy="250.47" r="400.28" stroke-width=".48"/>
    <circle cx="999.08" cy="250.82" r="409.78" stroke-width=".49"/>
    <circle cx="998.51" cy="251.02" r="420.09" stroke-width=".55"/>
    <circle cx="997.82" cy="251.08" r="430.08" stroke-width=".55"/>
    <circle cx="997.92" cy="251.77" r="440.06" stroke-width=".53"/>
    <circle cx="997.64" cy="252.28" r="450.14" stroke-width=".53"/>
    <circle cx="997.36" cy="252.41" r="460.24" stroke-width=".47"/>
    <circle cx="997.55" cy="252.55" r="470.27" stroke-width=".54"/>
    <circle cx="998.13" cy="252.73" r="480.04" stroke-width=".5"/>
    <circle cx="997.5" cy="253.33" r="490.26" stroke-width=".53"/>
    <circle cx="997.56" cy="253.38" r="499.85" stroke-width=".54"/>
    <circle cx="998.18" cy="253.52" r="510.36" stroke-width=".5"/>
    <circle cx="998.44" cy="253.22" r="520.32" stroke-width=".55"/>
    <circle cx="999.03" cy="253.95" r="529.82" stroke-width=".46"/>
    <circle cx="998.59" cy="253.31" r="540.18" stroke-width=".49"/>
    <circle cx="998.24" cy="253.6" r="550.01" stroke-width=".49"/>
    <circle cx="998.67" cy="253.6" r="559.99" stroke-width=".49"/>
    <circle cx="998.2" cy="253.97" r="569.9" stroke-width=".48"/>
    <circle cx="998.39" cy="253.46" r="580.29" stroke-width=".49"/>
    <circle cx="998.01" cy="252.8" r="590.18" stroke-width=".5"/>
    <circle cx="998.65" cy="253.47" r="600.35" stroke-width=".46"/>
    <circle cx="998.06" cy="253.38" r="610.21" stroke-width=".49"/>
    <circle cx="997.48" cy="254.01" r="619.82" stroke-width=".49"/>
    <circle cx="997.96" cy="253.38" r="630.07" stroke-width=".49"/>
    <circle cx="997.58" cy="253.56" r="639.95" stroke-width=".47"/>
    <circle cx="997.75" cy="253.52" r="649.83" stroke-width=".53"/>
    <circle cx="998.24" cy="253.76" r="660.12" stroke-width=".47"/>
    <circle cx="998.96" cy="253.83" r="669.65" stroke-width=".5"/>
    <circle cx="999.52" cy="254.11" r="680.03" stroke-width=".55"/>
    <circle cx="999.97" cy="253.49" r="690.36" stroke-width=".53"/>
    <circle cx="999.93" cy="253.35" r="699.97" stroke-width=".53"/>
    <circle cx="1000.2" cy="253.88" r="710.11" stroke-width=".54"/>
    <circle cx="1000.44" cy="253.64" r="719.75" stroke-width=".54"/>
    <circle cx="999.72" cy="253.45" r="730.36" stroke-width=".48"/>
    <circle cx="999.79" cy="254" r="740.18" stroke-width=".45"/>
    <circle cx="999.76" cy="254.27" r="750.05" stroke-width=".5"/>
    <circle cx="999.29" cy="254.12" r="760.02" stroke-width=".5"/>
    <circle cx="999.67" cy="253.83" r="769.97" stroke-width=".47"/>
    <circle cx="1000.34" cy="253.76" r="780.06" stroke-width=".47"/>
    <circle cx="1000.76" cy="253.48" r="790.21" stroke-width=".5"/>
    <circle cx="1000.75" cy="252.79" r="800.25" stroke-width=".52"/>
    <circle cx="1000.09" cy="252.72" r="809.75" stroke-width=".51"/>
    <circle cx="999.4" cy="253.03" r="819.82" stroke-width=".55"/>
    <circle cx="998.98" cy="253.29" r="830.21" stroke-width=".53"/>
    <circle cx="998.53" cy="252.88" r="840.36" stroke-width=".47"/>
    <circle cx="999.26" cy="253.61" r="850.09" stroke-width=".54"/>
    <circle cx="999.96" cy="253.99" r="859.66" stroke-width=".48"/>
    <circle cx="1000.67" cy="253.59" r="869.76" stroke-width=".53"/>
    <circle cx="1000.02" cy="254.18" r="879.69" stroke-width=".53"/>
    <circle cx="999.53" cy="253.95" r="889.66" stroke-width=".53"/>
    <circle cx="999.54" cy="253.7" r="899.72" stroke-width=".46"/>
    <circle cx="999.35" cy="253.02" r="909.65" stroke-width=".54"/>
    <circle cx="999.22" cy="253.02" r="919.66" stroke-width=".52"/>
    <circle cx="999.72" cy="252.92" r="930.05" stroke-width=".53"/>
    <circle cx="999.13" cy="252.25" r="939.8" stroke-width=".46"/>
    <circle cx="999.71" cy="251.62" r="949.67" stroke-width=".46"/>
    <circle cx="999.35" cy="251.68" r="959.65" stroke-width=".51"/>
    <circle cx="999.44" cy="251.26" r="970.29" stroke-width=".46"/>
    <circle cx="998.8" cy="250.73" r="980.14" stroke-width=".5"/>
    <circle cx="998.09" cy="251.39" r="990.03" stroke-width=".5"/>
    <circle cx="997.5" cy="250.85" r="999.96" stroke-width=".47"/>
    <circle cx="996.81" cy="251.54" r="1009.74" stroke-width=".5"/>
    <circle cx="996.89" cy="251.17" r="1019.8" stroke-width=".54"/>
    <circle cx="996.84" cy="251.02" r="1030.15" stroke-width=".49"/>
    <circle cx="996.87" cy="251.48" r="1040.03" stroke-width=".5"/>
    <circle cx="996.98" cy="251.92" r="1050.13" stroke-width=".52"/>
    <circle cx="996.51" cy="251.98" r="1060.16" stroke-width=".47"/>
    <circle cx="996.95" cy="251.91" r="1069.75" stroke-width=".48"/>
    <circle cx="996.82" cy="252.04" r="1079.77" stroke-width=".48"/>
    <circle cx="997.01" cy="251.29" r="1090.04" stroke-width=".52"/>
    <circle cx="997.52" cy="250.76" r="1099.72" stroke-width=".51"/>
    <circle cx="997.06" cy="250.43" r="1110.16" stroke-width=".52"/>
    <circle cx="996.71" cy="250.06" r="1120.24" stroke-width=".53"/>
    <circle cx="997.28" cy="249.56" r="1130.12" stroke-width=".5"/>
    <circle cx="997.85" cy="249.22" r="1140.24" stroke-width=".53"/>
    <circle cx="997.5" cy="248.48" r="1149.99" stroke-width=".45"/>
    <circle cx="996.98" cy="247.92" r="1159.71" stroke-width=".55"/>
    <circle cx="996.45" cy="248.51" r="1169.63" stroke-width=".48"/>
    <circle cx="997.01" cy="249.09" r="1179.97" stroke-width=".48"/>
    <circle cx="997.38" cy="248.53" r="1190.19" stroke-width=".46"/>
    <circle cx="997.71" cy="248.91" r="1200.27" stroke-width=".47"/>
    <circle cx="997.27" cy="248.23" r="1210.01" stroke-width=".52"/>
    <circle cx="997.39" cy="248.9" r="1219.76" stroke-width=".54"/>
    <circle cx="997.54" cy="249.6" r="1229.75" stroke-width=".45"/>
    <circle cx="997.54" cy="249.99" r="1239.67" stroke-width=".48"/>
    <circle cx="997.4" cy="249.28" r="1250.26" stroke-width=".54"/>
    <circle cx="997.61" cy="249.61" r="1260.32" stroke-width=".47"/>
    <circle cx="996.95" cy="249.51" r="1270.19" stroke-width=".47"/>
    <circle cx="996.33" cy="249.55" r="1279.98" stroke-width=".49"/>
    <circle cx="996.26" cy="249.69" r="1289.69" stroke-width=".52"/>
    <circle cx="995.82" cy="250.29" r="1300.24" stroke-width=".53"/>
    <circle cx="995.51" cy="250.82" r="1310.02" stroke-width=".51"/>
    <circle cx="994.84" cy="250.16" r="1319.8" stroke-width=".45"/>
    <circle cx="994.19" cy="249.99" r="1329.63" stroke-width=".5"/>
    <circle cx="994.94" cy="249.87" r="1339.67" stroke-width=".46"/>
    <circle cx="994.74" cy="250.05" r="1350.32" stroke-width=".46"/>
    <circle cx="994.55" cy="249.88" r="1360.21" stroke-width=".49"/>
    <circle cx="994.03" cy="250.22" r="1369.86" stroke-width=".54"/>
    <circle cx="993.63" cy="249.84" r="1380.06" stroke-width=".48"/>
    <circle cx="993.27" cy="249.42" r="1390.2" stroke-width=".46"/>
    <circle cx="993.19" cy="250.12" r="1399.71" stroke-width=".54"/>
    <circle cx="992.91" cy="249.75" r="1409.83" stroke-width=".52"/>
  </g>
</svg>
