<?xml version="1.0" encoding="UTF-8"?>
<svg xmlns="http://www.w3.org/2000/svg" xmlns:xlink="http://www.w3.org/1999/xlink" viewBox="0 0 808.6 408.34">
  <defs>
    <style>
      .cls-1 {
        clip-path: url(#clippath-2);
      }

      .cls-2 {
        fill: #e4cabd;
      }

      .cls-2, .cls-3, .cls-4, .cls-5 {
        stroke-width: 0px;
      }

      .cls-3 {
        fill: none;
      }

      .cls-6 {
        clip-path: url(#clippath-1);
      }

      .cls-4 {
        fill: #c0a6c9;
      }

      .cls-7 {
        clip-path: url(#clippath);
      }

      .cls-5 {
        fill: #acd8c0;
      }
    </style>
    <clipPath id="clippath">
      <rect class="cls-3" y=".09" width="808.6" height="408.25"/>
    </clipPath>
    <clipPath id="clippath-1">
      <rect class="cls-3" x="0" width="805.6" height="396.44"/>
    </clipPath>
    <clipPath id="clippath-2">
      <rect class="cls-3" x="0" y=".09" width="800.03" height="403.54"/>
    </clipPath>
  </defs>
  <g id="Layer_3" data-name="Layer 3">
    <g class="cls-7">
      <g>
        <g>
          <rect class="cls-2" x="-99.5" y=".59" width="100" height="100"/>
          <rect class="cls-2" x="-99.5" y="100.59" width="100" height="100"/>
          <rect class="cls-2" x="-99.5" y="200.59" width="100" height="100"/>
          <rect class="cls-2" x="-99.5" y="300.59" width="100" height="100"/>
        </g>
        <g>
          <rect class="cls-2" x=".5" y=".59" width="100" height="100"/>
          <rect class="cls-2" x=".5" y="100.59" width="100" height="100"/>
          <rect class="cls-2" x=".5" y="200.59" width="100" height="100"/>
          <rect class="cls-2" x=".5" y="300.59" width="100" height="100"/>
        </g>
        <g>
          <rect class="cls-2" x="100.5" y=".59" width="100" height="100"/>
          <rect class="cls-2" x="100.5" y="100.59" width="100" height="100"/>
          <rect class="cls-2" x="100.5" y="200.59" width="100" height="100"/>
          <rect class="cls-2" x="100.5" y="300.59" width="100" height="100"/>
        </g>
        <g>
          <rect class="cls-2" x="200.5" y=".59" width="100" height="100"/>
          <rect class="cls-2" x="200.5" y="100.59" width="100" height="100"/>
          <rect class="cls-2" x="200.5" y="200.59" width="100" height="100"/>
          <rect class="cls-2" x="200.5" y="300.59" width="100" height="100"/>
        </g>
        <g>
          <rect class="cls-2" x="300.5" y=".59" width="100" height="100"/>
          <rect class="cls-2" x="300.5" y="100.59" width="100" height="100"/>
          <rect class="cls-2" x="300.5" y="200.59" width="100" height="100"/>
          <rect class="cls-2" x="300.5" y="300.59" width="100" height="100"/>
        </g>
        <g>
          <rect class="cls-2" x="400.5" y=".59" width="100" height="100"/>
          <rect class="cls-2" x="400.5" y="100.59" width="100" height="100"/>
          <rect class="cls-2" x="400.5" y="200.59" width="100" height="100"/>
          <rect class="cls-2" x="400.5" y="300.59" width="100" height="100"/>
        </g>
        <g>
          <rect class="cls-2" x="500.5" y=".59" width="100" height="100"/>
          <rect class="cls-2" x="500.5" y="100.59" width="100" height="100"/>
          <rect class="cls-2" x="500.5" y="200.59" width="100" height="100"/>
          <rect class="cls-2" x="500.5" y="300.59" width="100" height="100"/>
        </g>
        <g>
          <rect class="cls-2" x="600.5" y=".59" width="100" height="100"/>
          <rect class="cls-2" x="600.5" y="100.59" width="100" height="100"/>
          <rect class="cls-2" x="600.5" y="200.59" width="100" height="100"/>
          <rect class="cls-2" x="600.5" y="300.59" width="100" height="100"/>
        </g>
        <g>
          <rect class="cls-2" x="700.5" y=".59" width="100" height="100"/>
          <rect class="cls-2" x="700.5" y="100.59" width="100" height="100"/>
          <rect class="cls-2" x="700.5" y="200.59" width="100" height="100"/>
          <rect class="cls-2" x="700.5" y="300.59" width="100" height="100"/>
        </g>
        <g>
          <rect class="cls-2" x="800.5" y=".59" width="100" height="100"/>
          <rect class="cls-2" x="800.5" y="100.59" width="100" height="100"/>
          <rect class="cls-2" x="800.5" y="200.59" width="100" height="100"/>
          <rect class="cls-2" x="800.5" y="300.59" width="100" height="100"/>
        </g>
      </g>
    </g>
  </g>
  <g id="Layer_1" data-name="Layer 1">
    <g class="cls-6">
      <g>
        <g>
          <polygon class="cls-5" points="206.95 -49.47 243.27 .53 302.05 -18.56 302.05 -80.37 243.27 -99.47 206.95 -49.47"/>
          <polygon class="cls-5" points="50.5 -94.52 .5 -58.19 19.6 .59 81.4 .59 100.5 -58.19 50.5 -94.52"/>
          <polygon class="cls-5" points="701.05 -49.47 664.73 -99.47 605.95 -80.37 605.95 -18.56 664.73 .53 701.05 -49.47"/>
        </g>
        <polygon class="cls-5" points="-9.17 10.87 -70.21 1.2 -98.27 56.27 -54.57 99.97 .5 71.91 -9.17 10.87"/>
        <g>
          <polygon class="cls-5" points="111.78 10.87 102.12 71.91 157.18 99.97 200.88 56.27 172.83 1.2 111.78 10.87"/>
          <polygon class="cls-5" points="206.95 50.59 243.27 100.59 302.05 81.49 302.05 19.69 243.27 .59 206.95 50.59"/>
          <polygon class="cls-5" points="313.78 90.3 374.83 99.97 402.88 44.9 359.18 1.2 304.12 29.26 313.78 90.3"/>
          <polygon class="cls-5" points="50.5 5.53 .5 41.86 19.6 100.64 81.4 100.64 100.5 41.86 50.5 5.53"/>
          <polygon class="cls-5" points="454.5 96.14 504.5 59.81 485.4 1.03 423.6 1.03 404.5 59.81 454.5 96.14"/>
          <polygon class="cls-5" points="595.22 90.3 604.88 29.26 549.82 1.2 506.12 44.9 534.17 99.97 595.22 90.3"/>
          <polygon class="cls-5" points="701.05 50.59 664.73 .59 605.95 19.69 605.95 81.49 664.73 100.59 701.05 50.59"/>
          <polygon class="cls-5" points="797.22 10.87 736.17 1.2 708.12 56.27 751.82 99.97 806.88 71.91 797.22 10.87"/>
        </g>
        <polygon class="cls-5" points="-9.17 110.92 -70.21 101.26 -98.27 156.32 -54.57 200.03 .5 171.97 -9.17 110.92"/>
        <g>
          <polygon class="cls-5" points="111.78 110.92 102.12 171.97 157.18 200.03 200.88 156.32 172.83 101.26 111.78 110.92"/>
          <polygon class="cls-5" points="206.95 150.64 243.27 200.64 302.05 181.54 302.05 119.74 243.27 100.64 206.95 150.64"/>
          <polygon class="cls-5" points="313.78 190.36 374.83 200.03 402.88 144.96 359.18 101.26 304.12 129.31 313.78 190.36"/>
          <polygon class="cls-5" points="50.5 105.59 .5 141.91 19.6 200.69 81.4 200.69 100.5 141.91 50.5 105.59"/>
          <polygon class="cls-5" points="454.5 196.19 504.5 159.87 485.4 101.09 423.6 101.09 404.5 159.87 454.5 196.19"/>
          <polygon class="cls-5" points="595.22 190.36 604.88 129.31 549.82 101.26 506.12 144.96 534.17 200.03 595.22 190.36"/>
          <polygon class="cls-5" points="701.05 150.64 664.73 100.64 605.95 119.74 605.95 181.54 664.73 200.64 701.05 150.64"/>
          <polygon class="cls-5" points="797.22 110.92 736.17 101.26 708.12 156.32 751.82 200.03 806.88 171.97 797.22 110.92"/>
        </g>
        <polygon class="cls-5" points="-9.17 210.98 -70.21 201.31 -98.27 256.38 -54.57 300.08 .5 272.02 -9.17 210.98"/>
        <g>
          <polygon class="cls-5" points="111.78 210.98 102.12 272.02 157.18 300.08 200.88 256.38 172.83 201.31 111.78 210.98"/>
          <polygon class="cls-5" points="206.95 250.69 243.27 300.69 302.05 281.6 302.05 219.79 243.27 200.69 206.95 250.69"/>
          <polygon class="cls-5" points="313.78 290.41 374.83 300.08 402.88 245.01 359.18 201.31 304.12 229.37 313.78 290.41"/>
          <polygon class="cls-5" points="50.5 205.64 .5 241.97 19.6 300.75 81.4 300.75 100.5 241.97 50.5 205.64"/>
          <polygon class="cls-5" points="454.5 296.25 504.5 259.92 485.4 201.14 423.6 201.14 404.5 259.92 454.5 296.25"/>
          <polygon class="cls-5" points="595.22 290.41 604.88 229.37 549.82 201.31 506.12 245.01 534.17 300.08 595.22 290.41"/>
          <polygon class="cls-5" points="701.05 250.69 664.73 200.69 605.95 219.79 605.95 281.6 664.73 300.69 701.05 250.69"/>
          <polygon class="cls-5" points="797.22 210.98 736.17 201.31 708.12 256.38 751.82 300.08 806.88 272.02 797.22 210.98"/>
        </g>
        <polygon class="cls-5" points="-9.17 311.03 -70.21 301.36 -98.27 356.43 -54.57 400.13 .5 372.07 -9.17 311.03"/>
        <g>
          <polygon class="cls-5" points="111.78 311.03 102.12 372.07 157.18 400.13 200.88 356.43 172.83 301.36 111.78 311.03"/>
          <polygon class="cls-5" points="206.95 350.75 243.27 400.75 302.05 381.65 302.05 319.84 243.27 300.75 206.95 350.75"/>
          <polygon class="cls-5" points="313.78 390.46 374.83 400.13 402.88 345.06 359.18 301.36 304.12 329.42 313.78 390.46"/>
          <polygon class="cls-5" points="50.5 305.69 .5 342.02 19.6 400.8 81.4 400.8 100.5 342.02 50.5 305.69"/>
          <polygon class="cls-5" points="454.5 396.3 504.5 359.97 485.4 301.19 423.6 301.19 404.5 359.97 454.5 396.3"/>
          <polygon class="cls-5" points="595.22 390.46 604.88 329.42 549.82 301.36 506.12 345.06 534.17 400.13 595.22 390.46"/>
          <polygon class="cls-5" points="701.05 350.75 664.73 300.75 605.95 319.84 605.95 381.65 664.73 400.75 701.05 350.75"/>
          <polygon class="cls-5" points="797.22 311.03 736.17 301.36 708.12 356.43 751.82 400.13 806.88 372.07 797.22 311.03"/>
        </g>
      </g>
    </g>
  </g>
  <g id="Layer_5" data-name="Layer 5">
    <g class="cls-1">
      <g>
        <g id="_Grid_Repeat_" data-name="&amp;lt;Grid Repeat&amp;gt;">
          <polygon class="cls-4" points="-99.5 100.59 -72.71 200.59 .5 127.38 -99.5 100.59"/>
          <polygon class="cls-4" points=".5 .59 -26.29 100.59 -99.5 27.38 .5 .59"/>
          <polygon class="cls-4" points="-99.5 400.59 -72.71 300.59 .5 373.79 -99.5 400.59"/>
          <polygon class="cls-4" points=".5 300.59 -26.29 200.59 -99.5 273.79 .5 300.59"/>
        </g>
        <g id="_Grid_Repeat_-2" data-name="&amp;lt;Grid Repeat&amp;gt;">
          <polygon class="cls-4" points=".5 100.59 27.29 200.59 100.5 127.38 .5 100.59"/>
          <polygon class="cls-4" points="100.5 .59 73.71 100.59 .5 27.38 100.5 .59"/>
          <polygon class="cls-4" points=".5 400.59 27.29 300.59 100.5 373.79 .5 400.59"/>
          <polygon class="cls-4" points="100.5 300.59 73.71 200.59 .5 273.79 100.5 300.59"/>
        </g>
        <g id="_Grid_Repeat_-3" data-name="&amp;lt;Grid Repeat&amp;gt;">
          <polygon class="cls-4" points="100.5 100.59 127.29 200.59 200.5 127.38 100.5 100.59"/>
          <polygon class="cls-4" points="200.5 .59 173.71 100.59 100.5 27.38 200.5 .59"/>
          <polygon class="cls-4" points="100.5 400.59 127.29 300.59 200.5 373.79 100.5 400.59"/>
          <polygon class="cls-4" points="200.5 300.59 173.71 200.59 100.5 273.79 200.5 300.59"/>
        </g>
        <g id="_Grid_Repeat_-4" data-name="&amp;lt;Grid Repeat&amp;gt;">
          <polygon class="cls-4" points="200.5 100.59 227.29 200.59 300.5 127.38 200.5 100.59"/>
          <polygon class="cls-4" points="300.5 .59 273.71 100.59 200.5 27.38 300.5 .59"/>
          <polygon class="cls-4" points="200.5 400.59 227.29 300.59 300.5 373.79 200.5 400.59"/>
          <polygon class="cls-4" points="300.5 300.59 273.71 200.59 200.5 273.79 300.5 300.59"/>
        </g>
        <g id="_Grid_Repeat_-5" data-name="&amp;lt;Grid Repeat&amp;gt;">
          <polygon class="cls-4" points="300.5 100.59 327.29 200.59 400.5 127.38 300.5 100.59"/>
          <polygon class="cls-4" points="400.5 .59 373.71 100.59 300.5 27.38 400.5 .59"/>
          <polygon class="cls-4" points="300.5 400.59 327.29 300.59 400.5 373.79 300.5 400.59"/>
          <polygon class="cls-4" points="400.5 300.59 373.71 200.59 300.5 273.79 400.5 300.59"/>
        </g>
        <g id="_Grid_Repeat_-6" data-name="&amp;lt;Grid Repeat&amp;gt;">
          <polygon class="cls-4" points="400.5 100.59 427.29 200.59 500.5 127.38 400.5 100.59"/>
          <polygon class="cls-4" points="500.5 .59 473.71 100.59 400.5 27.38 500.5 .59"/>
          <polygon class="cls-4" points="400.5 400.59 427.29 300.59 500.5 373.79 400.5 400.59"/>
          <polygon class="cls-4" points="500.5 300.59 473.71 200.59 400.5 273.79 500.5 300.59"/>
        </g>
        <g id="_Grid_Repeat_-7" data-name="&amp;lt;Grid Repeat&amp;gt;">
          <polygon class="cls-4" points="500.5 100.59 527.29 200.59 600.5 127.38 500.5 100.59"/>
          <polygon class="cls-4" points="600.5 .59 573.71 100.59 500.5 27.38 600.5 .59"/>
          <polygon class="cls-4" points="500.5 400.59 527.29 300.59 600.5 373.79 500.5 400.59"/>
          <polygon class="cls-4" points="600.5 300.59 573.71 200.59 500.5 273.79 600.5 300.59"/>
        </g>
        <g id="_Grid_Repeat_-8" data-name="&amp;lt;Grid Repeat&amp;gt;">
          <polygon class="cls-4" points="600.5 100.59 627.29 200.59 700.5 127.38 600.5 100.59"/>
          <polygon class="cls-4" points="700.5 .59 673.71 100.59 600.5 27.38 700.5 .59"/>
          <polygon class="cls-4" points="600.5 400.59 627.29 300.59 700.5 373.79 600.5 400.59"/>
          <polygon class="cls-4" points="700.5 300.59 673.71 200.59 600.5 273.79 700.5 300.59"/>
        </g>
        <g id="_Grid_Repeat_-9" data-name="&amp;lt;Grid Repeat&amp;gt;">
          <polygon class="cls-4" points="700.5 100.59 727.29 200.59 800.5 127.38 700.5 100.59"/>
          <polygon class="cls-4" points="800.5 .59 773.71 100.59 700.5 27.38 800.5 .59"/>
          <polygon class="cls-4" points="700.5 400.59 727.29 300.59 800.5 373.79 700.5 400.59"/>
          <polygon class="cls-4" points="800.5 300.59 773.71 200.59 700.5 273.79 800.5 300.59"/>
        </g>
      </g>
    </g>
  </g>
</svg>