<?xml version="1.0" encoding="UTF-8"?>
<svg id="Layer_1" data-name="Layer 1" xmlns="http://www.w3.org/2000/svg" viewBox="0 0 1024 512">
  <defs>
    <style>
      .cls-1 {
        fill: none;
      }

      .cls-2 {
        fill: #f795b8;
      }

      .cls-3 {
        fill: #ef0059;
      }
    </style>
  </defs>
  <rect class="cls-1" width="1024" height="512"/>
  <path class="cls-3" d="M836,216c16.92-10.05,32.48-12.41,51.36-4.86,51.42,20.58,41.08,104.62-10.15,117.56-38.12,9.63-79-8.02-81.2-50.7h36c3.06,17.5,15.66,26.7,33.44,21.94,21.06-5.63,23.22-39.45,11.56-54.44-8.09-10.39-26.31-11.34-36.5-3.5-2.53,1.95-4.47,6-5.93,7.07-3.53,2.57-26.59-1.79-32.58-1.07l13-101h99v30h-74c-1.47,11.94-2.75,24.19-5,36-.47,2.69-.14,3.69,1,3Z"/>
  <path d="M549,232h-36c1.71-20.89-41.61-23.42-47.24-9.75-5.24,12.72,12.74,15.1,21.22,17.26,21.82,5.55,53.02,6.9,62.5,31.5,10.26,26.6-8.76,50.48-34.46,56.51-36.44,8.56-88.66.05-89.03-46.53h36c-.55,22.27,31.72,24.82,46.69,18.19,9.96-4.42,9.96-15.29.54-19.91-24.19-11.88-78.03-6.94-80.26-44.73-1.79-30.37,25.19-46.98,52.49-48.58,31.96-1.87,65.65,9.27,67.54,46.04Z"/>
  <path d="M619,153v38h22v25h-22v77.5c0,7.98,16.64,7.28,22,5.5v27c-15.82,2.51-47.43,5.72-55.5-12-.42-.92-2.5-7.11-2.5-7.5v-90.5h-19v-25h19v-38h36Z"/>
  <path class="cls-2" d="M836,216c-.29.17-.11,1.54-1.99,1-.78-1.76.84-3.18.99-4l1,3Z"/>
  <path d="M239.98,160.52c-7.99-9.46-27.19-18.52-39.48-18.52h-88.5v184h39v-66h48.5c11.15,0,30.48-7.57,38.53-15.47,18.54-18.18,18.5-64.41,1.94-84.01ZM207.44,219.94c-2.54,2.86-12.45,8.06-15.94,8.06h-40.5v-54h40.5c1.54,0,8.79,2.51,10.55,3.45,13.05,6.96,14.45,32.28,5.39,42.49Z"/>
  <path d="M407.71,242.79c-6.65-40.89-37.76-60.26-77.91-56.49-78.05,7.32-79.55,129.72-7.03,142.43,57.2,10.02,94.07-29.77,84.94-85.94ZM345.24,299.74c-36.1,4.95-44.47-36.18-35.02-63.02,7.56-21.47,35.7-28.5,51.42-12.37,17.63,18.08,14.44,71.16-16.4,75.39Z"/>
  <path class="cls-3" d="M761,259v-112h-39.5l-67.5,108.5v31.5h72v39h35v-39h21v-28h-21ZM726,259h-46l46-76v76Z"/>
</svg>